<svg width="256" height="256" viewBox="0 0 256 256" fill="none" xmlns="http://www.w3.org/2000/svg">
<rect width="256" height="256" fill="#FAFAFA"/>
<path d="M157 215.333V182C158.159 171.561 155.166 161.084 148.667 152.833C173.667 152.833 198.667 136.167 198.667 107C199.333 96.5833 196.417 86.3333 190.333 77.8333C192.667 68.25 192.667 58.25 190.333 48.6667C190.333 48.6667 182 48.6667 165.333 61.1667C143.333 57 120.667 57 98.6667 61.1667C82 48.6667 73.6667 48.6667 73.6667 48.6667C71.1667 58.25 71.1667 68.25 73.6667 77.8333C67.5989 86.299 64.6539 96.6066 65.3333 107C65.3333 136.167 90.3333 152.833 115.333 152.833C112.083 156.917 109.667 161.583 108.25 166.583C106.833 171.583 106.417 176.833 107 182V215.333" stroke="black" stroke-width="8" stroke-linecap="round" stroke-linejoin="round"/>
<path d="M107 182C69.4167 198.667 65.3333 165.333 48.6667 165.333" stroke="black" stroke-width="8" stroke-linecap="round" stroke-linejoin="round"/>
<path d="M210 185.333H198.667V174C198.667 172.497 198.07 171.056 197.007 169.993C195.944 168.93 194.503 168.333 193 168.333C191.497 168.333 190.056 168.93 188.993 169.993C187.93 171.056 187.333 172.497 187.333 174L187.534 185.333H176C174.497 185.333 173.056 185.93 171.993 186.993C170.93 188.056 170.333 189.497 170.333 191C170.333 192.503 170.93 193.944 171.993 195.007C173.056 196.07 174.497 196.667 176 196.667L187.534 196.466L187.333 208C187.333 209.503 187.93 210.944 188.993 212.007C190.056 213.07 191.497 213.667 193 213.667C194.503 213.667 195.944 213.07 197.007 212.007C198.07 210.944 198.667 209.503 198.667 208V196.466L210 196.667C211.503 196.667 212.944 196.07 214.007 195.007C215.07 193.944 215.667 192.503 215.667 191C215.667 189.497 215.07 188.056 214.007 186.993C212.944 185.93 211.503 185.333 210 185.333Z" fill="black"/>
</svg>
