<svg width="2127" height="1826" viewBox="0 0 2127 1826" fill="none" xmlns="http://www.w3.org/2000/svg">
<g clip-path="url(#clip0_1_4)">
<path opacity="0.3" d="M1606.49 20.3213C1591.34 32.101 1582.06 51.8334 1576.54 69.8619C1570.65 88.1592 1567.81 106.632 1565.59 125.416C1561.12 163.075 1559.68 202.251 1548.1 250.114C1525.31 346.466 1444.7 394.996 1413.69 417.081C1399.53 427.116 1376.79 442.929 1356.9 455.475C1352.35 458.343 1348.1 461.031 1344.03 463.585C1392.04 451.988 1425.78 429.811 1455.84 405.357C1489.08 378.575 1517.89 347.683 1567.22 321.327C1600.29 303.846 1634.4 296.605 1662.08 298.449C1689.85 299.666 1710.29 309.748 1722.82 320.017C1735.62 329.75 1741.35 341.773 1744.53 349.058C1747.63 356.746 1747.9 361.575 1747.9 361.575C1712.97 352.093 1684.32 364.516 1662.92 382.116C1640.81 400.031 1623.39 423.083 1595.3 447.624C1567.24 472.298 1532.51 482.805 1500.81 485.662C1468.94 488.653 1440.63 483.813 1424.18 482.313C1409.38 480.855 1385.63 477.62 1366 473.978C1355.04 471.755 1345.2 469.755 1338.67 468.511C1305.86 515.506 1271.48 561.385 1235.62 605.97C1271.65 597.563 1299.36 583.889 1326.48 569.143C1360.4 550.856 1394.54 530.333 1442.59 521.777C1507.55 511.367 1548.26 534.57 1566.3 555.521C1585.01 577.142 1586.28 596.548 1586.28 596.548C1555.83 589.297 1530.17 597.065 1507.29 608.675C1484.1 620.465 1463.41 635.963 1436.37 649.412C1409.56 662.861 1381.75 661.733 1355.36 656.399C1329.2 651.065 1305.18 641.212 1290.87 636.981C1275.26 632.215 1246.05 623.352 1226.46 617.384C1220.21 624.994 1213.92 632.694 1207.58 640.259C1200.66 651.671 1191.28 664.874 1181.81 674.009C1177.3 678.128 1173.23 681.577 1169.57 684.22C1161.89 692.905 1154.16 701.679 1146.26 710.141C1128.53 729.123 1110.39 747.793 1091.94 766.196C1121.53 756.366 1144.95 745.694 1167.74 733.592C1184.1 724.985 1200.01 716.156 1216.76 708.086C1234.1 699.97 1249.43 692.752 1273.75 686.998C1303.07 680.612 1322.12 681.84 1337.86 684.549C1353.29 687.436 1365.19 692.475 1376.33 697.246C1386.62 701.705 1396.91 706.164 1404.51 709.509C1411.76 712.675 1416.23 715.129 1416.23 715.129C1389.42 735.733 1367.04 749.936 1344.43 767.047C1333.44 774.976 1321.56 783.576 1310.43 791.55C1304.49 795.627 1298.86 799.524 1293.68 803.198C1288.49 806.871 1283.18 810.589 1275.49 814.579C1247.47 829.773 1219.79 827.705 1194.75 821.475C1169.75 815.156 1147.2 804.586 1133.29 800.22C1120.99 796.211 1100.6 789.841 1082.26 785.616C1079.58 784.948 1076.85 784.37 1074.3 783.881C1026.33 830.582 975.671 874.603 922.237 915.006C977.539 908.945 1019.56 899.502 1060.82 888.898C1106.68 877.348 1151.38 865.219 1204.98 863.677C1214.06 863.398 1222.6 863.521 1231.14 863.869C1240.8 864.438 1248.45 865.457 1255.78 866.656C1270.27 869.187 1282.03 872.481 1292.09 876.046C1312.18 883.266 1326.31 891.432 1338.22 898.93C1350.07 906.518 1359.69 913.437 1366.45 918.706C1373.16 923.84 1376.79 927.547 1376.79 927.547C1336.47 940.297 1304.06 946.598 1271.79 957.102C1255.65 962.13 1240.14 967.248 1225.17 973.079C1209.08 978.913 1191.25 984.435 1171.76 988.797C1132.73 997.61 1098.7 990.587 1069.05 980.382C1039.57 970.044 1014.38 956.481 998.461 950.105C984.46 944.578 961.067 935.26 940.582 928.622C930.832 925.325 921.931 922.564 914.999 920.56C886.495 941.881 857.185 962.13 826.979 981.039C802.269 996.766 776.799 1011.33 750.88 1025.23C867.159 1054.37 939.34 1026.11 1044.91 1029.02C1118.55 1030.76 1162.34 1048.24 1189.14 1066.18C1215.71 1083.9 1224.54 1102.27 1224.54 1102.27C1139.46 1103.32 1090.89 1140.45 1000.41 1151.65C909.923 1162.18 845.837 1103.41 816.664 1082.61C797.737 1069.04 762.299 1042.2 744.221 1028.5C691.177 1056.47 635.893 1080.19 578.95 1099.18C621.275 1126.99 665.728 1136.41 708.434 1143.29C758.251 1151.59 810.298 1154.3 871.044 1181.91C945.12 1215.26 979.635 1256.5 994.286 1286.49C1009.12 1316.79 1005.65 1336.96 1005.65 1336.96C968.871 1312.81 934.166 1304 898.66 1298.14C880.951 1295.57 861.678 1292.78 843.612 1290.25C824.294 1287.55 803.99 1283.23 785.03 1280.26C743.44 1272.71 708.367 1253.21 679.952 1230.66C651.583 1208.25 631.571 1183.41 619.396 1169.52C608.34 1157.19 591.641 1136.24 579.551 1118.14C575.61 1112.38 572.251 1107.01 569.385 1102.23C526.521 1116.06 482.894 1127.38 438.369 1135.35C419.281 1138.68 400.147 1141.44 380.834 1143.65C411.788 1157.07 438.226 1170.81 463.01 1183.84C495.578 1201.42 525.148 1217.62 553.512 1234.66C581.832 1251.58 609.75 1269.3 636.328 1289.03C661.743 1307.51 688.59 1327.38 716.606 1353.41C753.886 1387.98 779.72 1423.32 794.731 1455.28C809.875 1487.19 814.33 1515 813.77 1535.61C812.941 1556.54 807.769 1570.28 802.949 1578.83C798.262 1587.33 794.465 1590.69 794.465 1590.69C780.687 1539.68 748.196 1508.95 714.235 1484.98C679.604 1460.56 640.955 1441.96 594.601 1410.36C546.235 1376.97 519.817 1340.11 495.997 1306.55C472.892 1273.13 455.2 1242.07 441.903 1224.83C430.262 1209.42 410.072 1184.49 389.44 1164.93C381.698 1157.38 373.956 1150.72 367.422 1145.23C321.151 1149.98 274.473 1151.29 227.97 1148.22C207.178 1146.91 186.475 1144.96 165.816 1142.26C167.068 1142.89 168.41 1143.55 169.752 1144.22C196.101 1157.92 220.707 1172.2 244.331 1188.45C268.178 1204.47 291.491 1222.24 314.405 1243.95C337.364 1265.56 360.326 1290.76 381.642 1323.06C403.091 1355.1 417.033 1391.66 423.416 1425.01C430.023 1459.04 429.921 1490.16 426.774 1517.76C420.168 1573.13 402.011 1613.35 391.707 1637.15C382.653 1658.68 365.293 1691.48 347.477 1714.66C329.929 1738.43 313.399 1751.42 313.399 1751.42C335.004 1716.6 343.992 1673.7 345.831 1635.29C347.714 1596.34 343.295 1559.49 334.989 1525.07C318.464 1454.93 288.183 1399.82 242.42 1332.31C181.165 1243.44 141.502 1195.73 116.518 1161.6C106.042 1148.1 98.0723 1136.98 91.9831 1128.58C67.8777 1122.71 43.9499 1115.58 20.3779 1106.62L20.2883 1106.58C14.9656 1104.48 12.2768 1098.45 14.3729 1093.12C16.4689 1087.8 22.5023 1085.11 27.825 1087.2L28.6748 1087.52C46.1639 1094.34 64.2779 1100.13 82.6594 1105.16C84.6703 1104.04 86.6811 1102.92 88.5133 1101.93C91.9085 1099.15 95.1252 1096.51 98.1184 1094.09C104.507 1089.12 110.582 1083.43 116.298 1076.9C122.015 1070.59 127.732 1064.94 132.733 1058.05C153.408 1031.82 169.61 1004.25 184.113 976.287C213.208 920.397 236.132 862.995 274.607 798.15C325.759 711.69 375.122 669.37 410.381 650.41C446.175 631.494 467.014 634.51 467.014 634.51C400.352 725.416 401.59 800.229 353.5 907.882C305.948 1016.7 208.751 1066.45 169.023 1086.09C153.784 1094.25 129.472 1105.14 107.928 1111.61C147.641 1120.68 188.468 1126.18 229.024 1128.86C237.788 1129.43 246.596 1129.91 255.36 1130.26C275.787 1123.79 294.598 1111.6 309.739 1095.8C333.412 1072.07 350.328 1043.07 363.622 1012.82C377.406 982.041 386.542 951.621 401.124 914.307C414.191 881.378 427.034 847.331 443.494 809.389C486.403 707.869 534.545 650.972 570.646 625.84C588.696 612.939 603.266 607.018 613.368 604.233C623.381 601.404 628.746 601.621 628.746 601.621C594.416 653.224 581.319 701.447 570.906 750.337C560.494 799.451 553.704 850.484 532.352 914.369C526.959 930.34 520.58 945.597 513.351 959.648C509.514 967.121 506.568 972.804 503.266 978.532C499.785 984.841 496.258 990.793 492.464 997.059C477.332 1021.81 459.426 1044.28 441.113 1062.64C403.95 1099.75 365.249 1118.67 342.724 1127.78C342.009 1128.09 341.294 1128.41 340.579 1128.72C372.232 1126.62 403.795 1122.92 435.043 1117.6C465.486 1112.33 495.614 1105.45 525.429 1097.41C567.278 1052.91 587.748 1000.88 602.766 951.712C620.68 892.929 630.188 833.307 659.491 761.542C676.261 720.29 693.972 682.079 713.662 654.463C733.262 626.355 753.944 607.503 772.131 596.793C790.452 586.038 805.338 583.068 815.174 583.056C825.011 583.044 829.663 584.916 829.663 584.916C810.902 602.38 799.746 624.082 792.569 645.422C785.347 666.851 781.747 688.186 778.953 710.147C776.158 732.107 774.482 754.513 770.796 779.382C769.199 791.547 765.86 805.861 763.681 817.848C761.368 829.881 758.565 842.897 755.18 856.63C742.046 911.651 715.087 957.208 685.835 991.23C656.986 1025.34 626.202 1046.98 608.509 1060.06C600.244 1066.55 588.717 1074.44 576.384 1082.14C640.658 1061 702.913 1033.6 762.212 1000.93C782.049 986.461 796.512 962.384 804.669 937.734C814.385 907.716 817.439 876.945 817.497 846.134C817.661 830.795 816.93 815.234 816.287 799.046L815.501 773.289C815.492 764.793 815.394 756.252 815.431 747.889C815.531 714.082 816.612 677.858 823.367 637.2C832.12 583.124 850.362 539.143 871.658 507.858C893.087 476.305 917.482 458.298 936.519 448.571C946.619 443.997 955.38 441.213 962.666 439.595C970.355 438.288 976.704 438.102 981.667 438.23C991.549 438.575 996.245 440.582 996.245 440.582C953.85 476.32 940.662 521.591 937.039 564.258C933.282 607.863 938.021 651.458 938.437 708.877C938.734 737.407 935.41 765.807 930.113 789.649C925.264 813.49 917.823 839.392 908.366 860.824C891.862 899.526 869.982 927.502 854.529 945.051C902.651 913.062 948.668 877.901 992.716 840.194C1010.69 798.091 1008.41 756.058 1001.58 716.893C993.349 670.664 978.406 617.959 984.646 553.69C988.716 510.8 1000.98 477.469 1015.08 453.438C1029.23 429.317 1045.04 414.182 1058.85 404.416C1071.4 395.815 1082.27 391.732 1090.62 389.53C1091.38 381.972 1092.67 374.681 1094.49 367.882C1101.31 341.668 1114.52 323.898 1127.17 314C1139.81 303.878 1151.57 300.688 1159.84 299.56C1168.11 298.432 1172.8 299.321 1172.8 299.321C1156.47 329.615 1163.65 358.897 1176.69 382.046C1189.77 405.552 1209.24 427.887 1225.81 460.288C1242.16 488.888 1245.55 526.447 1239.86 557.579C1237.46 572.026 1233.27 585.134 1228.81 596.542C1250.96 569.371 1272.44 541.753 1293.38 513.643C1300.99 474.863 1290.22 440.89 1276.46 409.335C1261.54 374.07 1240.58 338.366 1235.25 284.978C1232.08 249.654 1238.13 219.819 1248.8 198.878C1258.48 177.445 1272.77 164.459 1284.44 156.083C1309.59 140.132 1328.82 142.12 1328.82 142.12C1316.02 172.5 1319.27 200.49 1327.61 225.209C1336.26 250.42 1350.41 272.225 1362.38 300.875C1374.48 329.257 1373.22 360.249 1366.09 388.878C1361.42 408.112 1353.88 425.249 1347.45 438.583C1351.96 432.004 1356.56 425.469 1361.07 418.89C1379.72 385.507 1391.58 353.205 1401.34 321.309C1416.72 270.757 1426.64 220.615 1449.7 162.497C1480.15 85.2747 1519.95 42.6532 1553.78 25.2158C1570.58 16.6091 1584.62 14.4454 1593.88 16.0439C1602.77 17.4639 1606.49 20.3213 1606.49 20.3213ZM1088.41 494.578C1091.53 528.873 1099.65 561.866 1105.73 602.552C1108.83 622.985 1108.72 642.259 1106.46 660.91C1104.24 679.918 1099.66 698.974 1093.41 716.198C1084.94 740.133 1073.38 759.734 1063.56 774.504C1064.32 774.324 1065.08 774.144 1065.75 773.92C1090.18 750.457 1114.08 726.279 1137.4 701.7C1147.27 691.089 1157 680.3 1166.74 669.511C1169.32 658.73 1169.67 647.058 1168.22 636.059C1165.88 616.565 1159.11 598.328 1150.87 580.808C1142.58 563.154 1132.68 546.263 1122.91 527.09C1117.98 517.258 1113.1 507.56 1108.44 495.179C1103.86 483.066 1100.5 473.008 1097.18 460.178C1094.62 450.522 1092.78 440.999 1091.56 431.565C1086.89 453.259 1086.64 474.143 1088.41 494.578Z" fill="#D0D0D0"/>
<path d="M1154.28 1166.15C1143.08 1162.36 1133.68 1152.69 1126.79 1143.24C1119.68 1133.79 1114.28 1123.52 1109.23 1113.06C1099.04 1091.96 1090.23 1069.43 1073.92 1043.81C1041.19 992.188 984.306 980.137 961.812 973.418C951.495 970.404 935.03 965.741 920.897 962.423C917.648 961.695 914.622 960.958 911.731 960.261C942.053 957.333 966.271 963.45 988.688 971.693C1013.5 980.562 1036.52 992.811 1070.64 998.287C1093.47 1001.86 1114.89 999.132 1130.67 992.543C1146.58 986.217 1156.5 976.223 1161.78 967.746C1167.29 959.484 1168.28 951.301 1168.67 946.408C1168.93 941.252 1168.15 938.373 1168.15 938.373C1149.74 950.968 1130.44 949.455 1114.42 943.522C1097.9 937.519 1083.12 927.602 1061.71 918.918C1040.35 910.098 1017.96 911.073 998.849 915.728C979.648 920.432 964.125 928.936 954.795 933.135C946.438 937.029 933.305 943.653 922.526 949.786C916.571 953.277 911.23 956.431 907.682 958.489C879.064 937.679 849.722 917.836 819.792 899C842.485 896.716 861.412 899.004 880.285 902.233C903.787 906.005 927.835 911.189 957.643 906.49C997.654 899.394 1016.75 877.643 1023 861.789C1029.55 845.433 1026.39 833.826 1026.39 833.826C1010.04 844.151 993.548 844.86 977.758 842.678C961.832 840.456 946.612 835.568 928.22 833.215C909.867 830.727 893.813 837.013 879.407 845.475C865.176 853.841 853.089 864.454 845.636 869.791C837.491 875.735 822.244 886.824 812.05 894.233C806.872 891.026 801.695 887.82 796.429 884.661C790.099 879.349 781.916 873.57 774.583 870.175C771.125 868.649 768.082 867.466 765.367 866.673C759.103 863.149 752.84 859.625 746.537 856.236C732.381 848.712 718.058 841.507 703.472 834.447C722.754 834.26 738.606 835.724 754.317 838.177C765.613 839.856 776.742 841.855 788.07 843.175C799.796 844.391 810.221 845.521 825.605 844.049C844.005 841.836 854.891 837.355 863.525 832.511C871.936 827.675 877.825 822.397 883.41 817.399C888.469 812.689 893.577 808.067 897.473 804.564C901.106 801.205 903.169 798.935 903.169 798.935C883.364 792.339 867.38 788.553 850.841 783.133C842.92 780.745 834.184 778.119 825.991 775.652C821.695 774.471 817.623 773.281 813.87 772.258C810.069 771.148 806.268 770.037 800.96 769.297C781.552 766.132 765.739 772.857 752.37 781.548C739.138 790.28 727.992 800.946 720.811 806.363C714.46 811.211 703.787 818.995 693.95 825.183C692.507 826.087 691.064 826.992 689.709 827.848C652.263 810.279 613.862 794.714 574.493 781.961C607.951 774.35 634.514 771.428 660.704 769.281C689.789 766.802 718.357 764.835 749.984 754.921C755.336 753.243 760.28 751.446 765.177 749.562C770.64 747.253 774.946 745.122 778.98 742.912C786.961 738.54 793.154 734.235 798.278 730.06C808.575 721.797 815.137 714.211 820.607 707.337C825.99 700.512 830.241 694.534 833.162 690.084C836.043 685.769 837.41 682.853 837.41 682.853C811.346 683.563 791.088 686.338 770.115 686.767C759.7 687.113 749.589 687.18 739.684 686.791C729.117 686.65 717.585 687.038 705.329 688.394C680.729 691.152 662.345 702.135 647.083 714.031C632.005 726.053 619.962 739.036 611.986 745.914C604.918 751.953 593.172 762.15 582.509 770.158C577.464 774.062 572.801 777.415 569.23 780.055C548.261 773.413 527.092 767.45 505.607 762.573C488.041 758.399 470.19 754.952 452.228 752.136C514.069 711.416 561.982 713.332 623.058 690.363C665.694 674.531 687.759 655.489 699.781 639.553C711.811 623.84 713.177 611.348 713.177 611.348C663.271 627.855 627.383 616.045 572.329 627.734C517.378 639.821 491.854 687.099 478.926 705.127C470.639 716.85 455.342 739.712 447.589 751.37C410.995 745.762 373.927 743.036 336.752 743.447C355.917 718.696 379.897 704.191 403.458 691.626C430.869 676.723 460.711 664.594 490.66 636.215C527.229 601.815 539.04 570.715 541.541 550.304C544.121 529.621 538.067 518.57 538.067 518.57C521.466 540.093 502.949 552.29 483.431 562.868C473.552 567.938 462.883 573.44 452.917 578.558C442.161 584.108 431.175 590.697 420.73 596.191C397.984 608.994 381.401 627.428 369.401 646.316C357.352 665.117 350.666 683.717 346.407 694.26C342.466 703.716 336.964 719.273 333.516 732.336C332.374 736.496 331.487 740.289 330.719 743.674C302.859 744.228 275.106 746.433 247.611 750.777C235.779 752.698 224.004 754.93 212.332 757.561C227.646 743.471 240.391 730.104 252.228 717.576C267.664 700.796 281.762 685.319 294.822 669.613C307.978 654.082 320.67 638.121 332.252 621.173C343.38 605.27 355.049 588.274 366.168 567.359C380.97 539.639 388.952 513.83 391.314 492.126C393.677 470.421 390.709 453.348 386.234 441.432C381.575 429.39 375.808 422.401 371.228 418.411C366.783 414.461 363.916 413.181 363.916 413.181C366.17 445.811 353.349 470.28 338.423 491.113C323.155 512.362 304.298 531.016 283.59 558.779C262.087 588.004 254.012 614.891 246.961 639.277C240.174 663.519 236.151 685.107 231.888 697.932C228.198 709.304 221.424 727.951 213.28 743.473C210.282 749.448 207.132 754.937 204.347 759.427C176.354 765.983 148.844 774.668 122.319 785.778C110.421 790.7 98.7627 796.061 87.2966 801.772C87.9418 801.076 88.5473 800.517 89.1924 799.821C101.85 786.502 113.39 773.225 123.819 758.96C134.519 744.774 144.516 729.72 153.535 712.465C162.554 695.21 170.914 675.92 176.889 652.693C182.961 629.641 183.755 605.49 180.74 584.793C177.709 563.649 171.387 545.448 164.048 529.971C149.099 498.936 130.364 479.098 119.448 467.29C109.828 456.597 93.0392 440.938 77.985 430.941C62.962 420.585 50.6319 416.394 50.6319 416.394C70.2939 432.304 84.1912 455.591 92.9865 477.682C101.926 500.036 106.795 522.453 108.91 544.213C113.436 588.483 106.818 626.771 93.6984 675.463C75.8825 739.725 62.3245 775.544 54.5807 800.539C51.1512 810.513 48.7717 818.658 46.9872 824.766C34.0492 832.994 21.5437 842.012 9.61472 852.081C6.88146 854.377 6.58554 858.416 8.88104 861.149C11.1765 863.882 15.2154 864.178 17.9486 861.883L18.4268 861.507C27.3198 854.012 36.6764 846.948 46.409 840.362C47.8062 840.623 49.2034 840.884 50.4648 841.105C53.0043 841.994 55.4561 842.931 57.6365 843.789C62.396 845.401 67.0846 847.507 71.7023 850.109C76.2719 852.622 80.7852 854.825 85.1482 857.794C102.527 868.911 117.554 881.773 131.617 895.163C159.878 921.983 184.816 950.852 220.313 980.892C267.65 1021.09 304.987 1035.76 329.44 1039.81C354.195 1043.58 365.789 1037.68 365.789 1037.68C308.494 998.033 294.223 954.085 244.477 900.951C194.746 847.011 127.977 837.524 100.819 834.157C90.3295 832.493 73.8942 831.006 59.9526 831.574C81.2932 818.287 104.09 806.825 127.129 797.054C132.105 794.898 137.177 792.918 142.249 790.937C155.529 790.618 168.943 793.873 180.989 800.045C199.633 809.101 215.268 822.656 229.166 837.619C243.432 852.836 254.858 868.697 270.918 887.607C285.234 904.165 299.535 921.529 316.8 940.348C362.336 991 401.884 1014.49 428.027 1021.83C441.194 1025.68 450.836 1026.21 457.356 1025.83C463.74 1025.41 466.826 1024.18 466.826 1024.18C436.329 1000.98 419.035 975.445 403.097 949.058C387.063 922.495 372.885 894.116 347.565 861.01C341.214 852.746 334.352 845.216 327.341 838.453C323.671 834.876 320.705 832.168 317.652 829.508C314.318 826.545 311.081 823.758 307.572 820.891C293.72 809.552 278.771 799.954 264.368 793.021C235.196 778.9 208.758 775.596 193.736 774.818C193.241 774.747 192.794 774.764 192.3 774.693C211.261 769.55 230.391 765.341 249.691 762.066C268.504 758.943 287.495 756.977 306.599 755.633C340.063 773.218 362.393 799.411 381.171 825.155C403.446 855.824 421.016 888.729 452.622 924.777C470.761 945.399 488.696 964.193 505.845 976.348C522.963 988.863 538.794 995.698 551.6 998.26C564.541 1000.86 573.757 999.577 579.499 997.571C585.242 995.565 587.537 993.51 587.537 993.51C573.064 987.072 562.111 976.653 553.687 965.647C545.127 954.601 538.689 942.849 532.681 930.633C526.673 918.417 521.135 905.602 513.951 891.864C510.563 885.055 505.713 877.45 502.022 870.92C498.195 864.351 493.992 857.303 489.286 849.961C470.501 820.458 445.586 799.331 421.697 785.28C397.897 771.181 375.411 764.686 362.458 760.607C356.293 758.512 348.061 756.18 339.214 754.185C380.945 753.558 422.875 757.042 464.133 764.085C478.579 768.6 491.927 779.645 501.671 792.437C513.399 808.018 521.388 825.306 527.614 843.331C530.815 852.296 533.489 861.549 536.443 871.105L541.132 886.324C542.841 891.316 544.55 896.309 546.211 901.215C553.127 920.915 561.074 941.874 573.102 964.246C589.078 994.034 608.655 1016.03 627.396 1030.05C646.273 1044.11 664.208 1049.79 677.3 1051.63C684.125 1052.22 689.759 1052.1 694.395 1051.62C699.198 1050.81 702.915 1049.68 705.738 1048.59C711.473 1046.36 713.767 1044.31 713.767 1044.31C681.797 1031.95 665.018 1008.19 654.312 984.066C643.317 959.418 637.267 932.972 626.024 899.337C620.519 882.627 612.804 866.672 604.848 853.813C597.203 840.898 587.648 827.204 577.853 816.607C560.435 797.302 541.954 785.42 529.379 778.284C563.952 787.279 597.939 798.534 631.236 811.65C650.236 832.597 657.353 857.66 661.26 881.859C665.782 910.51 667.631 944.273 684.297 980.524C695.275 1004.73 709.249 1021.7 722.246 1032.94C735.379 1044.21 747.672 1049.79 757.717 1052.73C766.716 1055.21 773.932 1055.48 779.286 1055.05C781.281 1059.32 783.443 1063.26 785.908 1066.93C795.159 1080.91 806.546 1088.58 815.842 1091.81C825.273 1095.08 832.774 1094.62 837.84 1093.67C842.858 1092.63 845.489 1091.19 845.489 1091.19C829.821 1076.74 828.143 1058.27 831.026 1042.1C833.902 1025.7 840.83 1008.79 843.886 986.482C847.656 966.515 842.108 943.899 832.516 926.806C828.144 918.825 823.143 911.986 818.185 906.265C836.601 917.612 854.724 929.463 872.679 941.633C884.928 962.744 885.487 984.786 883.818 1005.88C882.153 1029.49 877.187 1054.55 884.795 1086.76C890.069 1108.04 899.58 1124.15 910.078 1134.37C920.049 1144.87 931.016 1149.69 939.52 1152.1C957.444 1156.31 968.265 1151.29 968.265 1151.29C954.63 1136.18 950.904 1119.18 950.835 1103.03C950.797 1086.52 954.687 1070.93 955.897 1051.91C957.243 1032.93 950.22 1015.12 940.335 999.778C933.684 989.511 925.848 981.033 919.427 974.517C923.431 977.454 927.387 980.304 931.39 983.242C949.033 999.004 962.447 1015.37 974.576 1032.1C993.739 1058.55 1009.57 1085.79 1034.84 1115.05C1068.17 1154.03 1099.99 1170.92 1123.34 1174.2C1134.86 1175.87 1143.58 1174.29 1148.53 1171.47C1152.67 1168.63 1154.28 1166.15 1154.28 1166.15ZM756.086 993.761C751.06 973.14 749.066 952.226 744.368 927.206C742.063 914.672 738.108 903.498 733.012 892.949C727.869 882.312 721.354 872.084 714.267 863.31C704.5 851.101 693.773 841.927 685.022 835.319C685.469 835.302 686.004 835.237 686.45 835.22C705.485 843.949 724.273 853.268 742.806 862.955C750.707 867.178 758.568 871.538 766.429 875.897C770.047 881.668 772.629 888.463 774.086 895.077C776.677 906.884 776.324 918.935 775.069 930.797C773.774 942.795 771.489 954.651 769.566 967.791C768.7 974.536 767.786 981.194 767.554 989.303C767.273 997.324 767.429 1003.85 768.002 1011.98C768.413 1018.14 769.261 1024.06 770.461 1029.78C763.536 1018.19 759.189 1006.09 756.086 993.761Z" fill="#D0D0D0" fill-opacity="0.52"/>
<path d="M906.925 529C898.025 526.8 890.125 520 884.225 513.2C878.125 506.3 873.225 498.8 868.625 491C859.325 475.4 851.025 458.5 836.725 439.8C808.025 402.1 763.225 396.5 745.425 392.9C737.325 391.3 724.225 388.8 713.125 387.2C710.625 386.8 708.125 386.5 705.925 386.2C729.225 381.9 748.225 385.1 766.125 389.9C785.925 395.1 804.525 403 831.225 405C849.125 406.2 865.425 402.7 877.225 396.6C889.125 390.7 896.125 382.3 899.625 375.4C903.325 368.6 903.525 362.3 903.525 358.4C903.325 354.4 902.525 352.3 902.525 352.3C889.125 363.3 874.125 363.4 861.325 359.9C848.225 356.4 836.025 349.7 818.925 344.4C801.825 339 784.625 341.2 770.225 346.2C755.725 351.1 744.225 358.7 737.325 362.6C731.125 366.1 721.425 372.2 713.525 377.6C709.125 380.7 705.225 383.5 702.625 385.3C679.125 371.1 655.125 357.7 630.725 345.2C648.125 341.9 662.925 342.5 677.625 343.6C696.025 345 714.925 347.3 737.625 341.7C768.025 333.6 781.325 315.5 785.225 302.8C789.225 289.7 785.925 281 785.925 281C774.025 290.1 761.225 291.7 749.025 291.1C736.625 290.5 724.525 287.7 710.125 287.1C695.725 286.4 683.825 292.3 673.325 299.8C662.925 307.2 654.325 316.2 648.925 320.8C643.025 325.9 631.925 335.5 624.625 341.9C620.425 339.8 616.125 337.7 611.925 335.6C606.725 331.9 600.025 328 594.125 325.9C591.325 325 588.925 324.3 586.725 323.8C581.625 321.5 576.625 319.2 571.525 317C560.125 312.1 548.525 307.5 536.825 303.1C551.725 301.7 564.025 301.7 576.325 302.6C585.125 303.2 593.825 303.9 602.725 304.2C611.925 304.4 620.025 304.6 631.725 302.3C645.825 299.4 653.925 295.1 660.225 290.9C666.425 286.6 670.625 282.1 674.625 277.9C678.225 273.9 681.825 270 684.625 267C687.225 264.2 688.625 262.3 688.625 262.3C672.825 258.5 660.325 256.7 647.125 253.6C640.825 252.3 633.925 250.8 627.425 249.5C624.025 248.9 620.825 248.2 617.825 247.7C614.825 247.1 611.825 246.5 607.625 246.3C592.425 245.1 580.625 251.4 570.925 259C561.225 266.6 553.425 275.6 548.125 280.3C543.525 284.4 535.825 291.2 528.625 296.6C527.525 297.4 526.525 298.2 525.525 298.9C495.425 287.8 464.725 278.4 433.525 271.1C458.925 263 479.125 259 499.225 255.5C521.525 251.6 543.425 248.2 567.225 238.5C571.225 236.9 574.925 235.1 578.625 233.3C582.725 231.2 585.925 229.2 588.825 227.3C594.725 223.4 599.125 219.6 602.925 216.1C610.325 209 614.925 202.7 618.625 197.1C622.325 191.5 625.225 186.5 627.125 183C629.025 179.4 629.925 177.1 629.925 177.1C609.825 179.4 594.425 182.9 578.225 184.6C570.225 185.6 562.425 186.3 554.725 186.7C546.625 187.3 537.725 188.3 528.325 190.2C509.525 194 496.025 203.7 485.025 213.9C474.125 224.2 465.725 235 460.025 240.9C455.025 246.1 446.525 254.7 438.925 261.6C435.325 264.9 431.925 267.9 429.325 270.1C412.725 266.3 395.925 263.2 379.025 260.8C365.125 258.7 351.125 257.3 337.125 256.3C382.225 220.7 419.325 219 464.925 197.2C496.825 182.1 512.525 165.9 520.825 152.9C529.025 140 529.325 130.2 529.325 130.2C491.725 146 463.325 139.2 421.525 152C379.925 165 363.325 203.2 354.525 218C348.925 227.6 338.625 246.3 333.325 255.8C304.625 253.9 275.825 254.3 247.225 257.1C260.325 236.7 277.925 223.9 295.325 212.6C315.525 199.3 337.725 187.9 359.025 164C384.925 135 392.025 110.2 392.625 94.2C393.225 78.1 387.825 69.9 387.825 69.9C376.425 87.6 362.925 98.3 348.525 107.7C341.225 112.3 333.425 117.2 326.025 121.9C318.125 126.9 310.025 132.7 302.325 137.7C285.625 149.1 274.025 164.5 266.025 179.9C257.925 195.2 254.025 210 251.425 218.5C248.925 226 245.725 238.5 244.025 248.8C243.425 252.1 243.025 255.1 242.625 257.7C221.225 260 199.825 263.5 178.825 268.7C169.825 271 160.925 273.5 152.025 276.3C162.925 264.4 171.825 253.2 180.125 242.7C190.925 228.7 200.725 215.8 209.825 202.8C218.925 189.9 227.725 176.7 235.525 162.9C243.025 149.9 250.925 135.9 258.125 119.1C267.725 96.7 272.125 76.2 272.525 59.3C272.925 42.4 269.425 29.3 265.225 20.4C260.825 11.4 255.925 6.39998 252.125 3.59998C248.425 0.799976 246.125 0.0999756 246.125 0.0999756C250.025 25.1 241.725 44.9 231.625 62C221.225 79.4 207.925 95.1 193.825 118C179.225 142 174.725 163.3 170.825 182.6C167.225 201.7 165.525 218.8 163.025 228.9C160.925 237.9 156.925 252.7 151.725 265.3C149.825 270.1 147.725 274.5 145.925 278.2C124.725 285.2 104.125 293.7 84.325 304C75.525 308.6 66.825 313.5 58.325 318.7C58.725 318.2 59.225 317.6 59.625 317.1C68.525 306 76.525 294.9 83.625 283.2C90.925 271.5 97.625 259.2 103.525 245.3C109.425 231.4 114.525 215.9 117.525 197.6C120.625 179.4 119.625 160.7 116.025 144.8C112.325 128.6 106.225 115 99.425 103.5C85.825 80.6 70.025 66.5 60.825 58.1C52.725 50.5 38.725 39.5 26.325 32.8C14.025 25.8 4.22499 23.3 4.22499 23.3C20.425 34.3 32.725 51.3 41.025 67.8C49.425 84.5 54.625 101.5 57.725 118.2C64.125 152.1 61.625 182.1 54.725 220.6C45.225 271.4 37.125 300 32.825 319.8C30.925 327.7 29.525 334.2 28.525 339C19.125 346.2 10.025 354 1.425 362.6C-0.475 364.6 -0.475 367.7 1.425 369.6C3.425 371.5 6.525 371.5 8.425 369.6L8.72499 369.3C15.025 362.9 21.825 356.9 28.925 351.1C30.025 351.2 31.125 351.3 32.125 351.4C34.125 352 36.025 352.5 37.825 353C41.625 353.9 45.325 355.2 49.125 357C52.825 358.7 56.425 360 60.025 362.1C74.225 369.5 86.625 378.5 98.425 387.8C122.025 406.6 143.225 427.2 172.725 448.1C211.925 476 241.825 484.9 260.925 486.3C280.325 487.6 288.825 482.2 288.825 482.2C241.925 455.4 227.925 422.4 185.925 384.7C143.925 346.3 91.725 343.5 70.525 342.7C62.325 342.1 49.525 342.1 38.825 343.4C54.425 331.7 71.225 321.3 88.425 312.3C92.125 310.3 95.925 308.4 99.725 306.5C109.925 305.3 120.525 307 130.225 311C145.225 316.8 158.225 326.2 169.925 336.8C181.925 347.6 191.825 359.1 205.525 372.6C217.625 384.4 229.925 396.9 244.525 410.3C283.025 446.4 315.225 461.9 335.925 465.8C346.325 467.9 353.825 467.7 358.825 466.9C363.725 466.2 366.025 465 366.025 465C340.925 449.1 325.825 430.6 311.725 411.2C297.625 391.7 284.725 370.7 262.925 346.9C257.425 341 251.725 335.6 245.825 330.8C242.725 328.3 240.325 326.4 237.725 324.5C235.025 322.4 232.225 320.5 229.325 318.5C217.925 310.6 205.725 304.2 194.125 299.8C170.625 290.8 150.025 290.1 138.425 290.4C138.125 290.4 137.625 290.4 137.325 290.4C151.625 285.2 166.125 280.6 180.825 276.8C195.125 273.2 209.725 270.3 224.325 268C251.325 279.4 270.325 298.1 286.525 316.7C305.825 338.9 321.525 363.2 348.325 388.9C363.725 403.7 378.825 416.9 392.825 425.2C406.825 433.7 419.625 437.9 429.625 439.1C439.725 440.2 446.825 438.6 451.125 436.7C455.425 434.8 457.125 433 457.125 433C445.525 429 436.425 421.7 429.125 413.8C421.825 405.8 416.025 397.2 410.625 388.2C405.125 379.1 400.025 369.7 393.625 359.5C390.525 354.5 386.325 348.9 383.025 344.1C379.625 339.3 375.925 334.1 371.725 328.8C355.225 307.3 334.625 292.6 315.225 283.4C295.825 274.1 278.125 270.6 267.825 268.3C262.925 267.1 256.425 265.9 249.425 264.9C281.625 261.6 314.225 261.5 346.625 264.2C358.125 266.7 369.125 274.4 377.525 283.6C387.625 294.8 394.925 307.7 400.925 321.2C404.025 327.9 406.725 334.9 409.525 342L414.225 353.4C415.925 357.1 417.525 360.9 419.125 364.5C425.725 379.3 433.325 394.9 444.125 411.4C458.425 433.3 475.025 449.1 490.425 458.6C505.925 468.2 520.125 471.4 530.325 471.9C535.625 471.9 540.025 471.4 543.525 470.8C547.125 469.9 549.925 468.7 552.125 467.7C556.325 465.6 558.025 463.8 558.025 463.8C532.525 456.4 517.925 439.2 508.025 421.2C497.925 402.9 491.425 382.9 480.525 357.6C475.125 345.1 468.125 333.3 461.125 323.9C454.325 314.4 446.025 304.5 437.725 297C422.925 283.3 407.925 275.3 397.725 270.6C425.025 275.2 452.025 281.7 478.625 289.6C494.725 304.5 501.925 323.4 506.525 341.8C511.925 363.6 515.625 389.6 530.925 416.5C541.025 434.5 552.925 446.7 563.725 454.4C574.625 462.2 584.525 465.8 592.425 467.3C599.625 468.6 605.125 468.3 609.225 467.6C611.025 470.8 613.025 473.7 615.125 476.3C623.225 486.4 632.525 491.6 639.925 493.5C647.425 495.4 653.225 494.6 657.025 493.4C660.825 492.3 662.725 491 662.725 491C649.725 480.9 647.125 466.7 648.325 454.1C649.425 441.2 653.625 427.7 654.625 410.3C656.225 394.6 650.425 377.5 641.825 365C637.925 359.1 633.625 354.2 629.425 350.1C644.425 357.7 659.225 365.6 673.825 373.8C684.625 389.3 686.625 406.3 686.725 422.7C687.025 441 684.825 460.7 692.825 485.1C698.325 501.2 706.725 513 715.525 520.1C723.925 527.6 732.725 530.5 739.425 531.9C753.525 534 761.525 529.4 761.525 529.4C750.025 518.6 746.025 505.7 744.825 493.3C743.725 480.6 745.625 468.3 745.325 453.4C745.125 438.6 738.525 425.3 729.825 414.2C724.025 406.7 717.425 400.7 711.925 396.1C715.225 398.1 718.525 400.1 721.725 402.1C736.425 413.1 747.825 424.9 758.325 436.9C774.925 456 789.025 476 810.425 497C838.825 524.9 864.525 535.8 882.725 536.8C891.725 537.3 898.325 535.5 902.025 533C905.925 530.9 906.925 529 906.925 529ZM587.925 422.3C582.625 406.7 579.725 390.7 574.525 371.7C571.925 362.2 568.125 353.8 563.425 346C558.725 338.1 553.025 330.7 546.925 324.4C538.525 315.6 529.725 309.3 522.525 304.7C522.925 304.6 523.225 304.6 523.625 304.5C538.925 310 554.025 315.9 569.025 322.2C575.425 324.9 581.825 327.7 588.125 330.6C591.325 334.8 593.825 339.9 595.325 344.9C598.125 353.9 598.725 363.2 598.525 372.4C598.325 381.7 597.325 391.1 596.725 401.3C596.525 406.6 596.225 411.7 596.625 418.1C596.925 424.3 597.525 429.4 598.525 435.6C599.325 440.3 600.325 444.8 601.625 449.2C595.325 440.7 591.125 431.6 587.925 422.3Z" fill="#D0D0D0" fill-opacity="0.32"/>
</g>
<defs>
<clipPath id="clip0_1_4">
<rect width="2126.4" height="1825.2" fill="white"/>
</clipPath>
</defs>
</svg>
