<svg width="794" height="1406" viewBox="0 0 794 1406" fill="none" xmlns="http://www.w3.org/2000/svg">
<g clip-path="url(#clip0_1_2)">
<path opacity="0.3" d="M186.2 0.0999772C191.5 11.6 190.9 25.9 188.7 38.2C186.6 50.7 182.7 62.4 178.3 74C169.5 97.4 158.5 120.8 150.8 152.3C135 215.6 167.5 268.5 178.9 290.8C184.1 301 192.7 317.1 200.5 330.5C202.3 333.5 204 336.4 205.6 339.1C181 317.8 168 294.6 157.8 271.1C146.4 245.4 138.9 218.5 118 188.1C104 168 86.2 153.4 69.4 146C52.8 138.3 37.7 138 27.3 140.2C16.8 142 9.8 147.3 5.8 150.6C1.6 154.3 0 157 0 157C23.3 162 36.3 178 43.5 194.7C51 211.9 54.2 230.6 63.3 253.5C72.2 276.5 89.4 293.1 107.1 304.4C124.9 315.8 142.9 321.6 153 325.6C162.1 329.2 177 334.5 189.6 338.3C196.7 340.3 203 342.1 207.3 343.3C212.3 380.7 218.5 418 226 455C207.5 439.2 195.4 422.8 184 405.9C169.7 384.9 155.9 362.6 130.4 343C95.5 317.3 64.6 318.5 47.7 325.3C30.2 332.3 23.6 343.3 23.6 343.3C43.6 348.3 56.3 360.6 66.2 374.3C76.2 388.2 83.7 403.6 95.4 419.6C107 435.6 123.6 443.4 140.8 448.2C157.8 453 174.8 454.5 184.5 456.4C195.1 458.3 214.9 462 228.1 464.4C229.4 470.8 230.8 477.1 232.2 483.5C232.8 492.3 234.3 502.8 237.1 511.1C238.5 514.9 239.8 518.1 241.2 520.8C243.1 528.2 244.9 535.7 247 543.1C251.6 559.6 256.6 576 261.8 592.4C247.5 577.7 237 564.3 227.3 550.3C220.3 540.3 213.7 530.3 206.3 520.5C198.6 510.5 191.8 501.6 179.3 490.9C164 478.3 152.5 473.2 142.5 470.1C132.6 467.1 124.1 466.5 116.2 465.9C108.8 465.4 101.5 464.9 96 464.5C90.8 464.1 87.4 464.2 87.4 464.2C96.9 484.4 105.7 499.5 113.7 516.3C117.7 524.2 122.1 532.9 126.2 541C128.4 545.2 130.5 549.2 132.5 552.9C134.4 556.6 136.4 560.4 139.7 565C151.5 582.4 168.4 589.6 184.9 593.5C201.4 597.3 217.9 598 227.3 599.7C235.7 601.1 249.6 603.6 261.6 606.6C263.4 607 265.1 607.5 266.8 608C280.8 649.9 297.1 691 316.1 730.8C285.6 710.5 263.8 692.2 242.8 673.5C219.5 652.9 196.9 632.2 166 615.1C160.8 612.2 155.7 609.7 150.6 607.3C144.8 604.7 140 603 135.3 601.5C126.1 598.6 118.2 597 111.2 596C97.3 594.1 86.5 594.7 77.2 595.4C68 596.2 60.2 597.4 54.7 598.4C49.2 599.4 46 600.5 46 600.5C65.7 620.2 82.8 633.7 98.5 649.6C106.4 657.4 114 665.1 121 673.1C128.6 681.4 137.4 690 147.5 698.5C167.7 715.5 189.8 721.7 210.2 724.7C230.6 727.6 249.5 727.3 260.7 728.3C270.6 729.3 287.1 730.9 301.1 733.2C307.8 734.2 313.9 735.3 318.5 736.2C328.8 757.3 339.8 778 351.8 798.3C361.5 815 372 831.3 383 847.2C306 829.3 272.2 791 209.5 760.7C165.9 739.4 134.9 736.4 113.8 738.8C92.8 741.1 82.1 749.2 82.1 749.2C131.6 775.6 148.8 812 198.5 846C248.3 879.6 303.7 864.5 327.1 861.2C342.3 859 371.2 854 385.9 851.4C408.5 883.8 433.7 914.5 461.3 942.9C428.1 946.3 399.2 938.4 372.1 929.5C340.4 919.3 309.1 905.1 265.1 902.8C211.6 899.9 178.9 913.6 161.2 926.7C143.4 940 139.3 952.8 139.3 952.8C168.2 949.8 191.2 955.1 213.7 962.5C224.8 966.4 237 970.6 248.3 974.5C260.5 978.8 273.7 982.4 285.6 986.4C312.3 994.6 338.7 993.8 362.2 989.2C385.6 984.7 404.9 976.2 416.2 971.7C426.4 967.8 442.5 960.6 455.1 953.7C459.1 951.5 462.8 949.4 465.9 947.5C486.8 968.6 509 988.4 532.6 1006.6C542.8 1014.3 553.2 1021.7 563.8 1028.9C541.6 1027.4 522 1027.4 503.5 1027.5C479.1 1027.9 456.9 1028.5 435.1 1029.8C413.4 1031.1 391.7 1033 370.1 1036.5C349.6 1039.6 327.8 1043.1 303.5 1049.9C271.2 1058.8 245.3 1071.7 226.9 1085.9C208.3 1100 197.3 1114.9 191.4 1127.2C185.6 1139.7 184.4 1149.3 184.6 1155.8C184.8 1162.2 186 1165.3 186 1165.3C209.5 1139.6 237.9 1131.5 265 1127.7C292.7 1123.9 320.9 1124.7 357.7 1120.3C396.1 1115.4 422.8 1101.8 446.9 1089.4C470.6 1076.8 490.3 1064 503.4 1057.9C514.9 1052.4 534.2 1043.9 552.3 1038.7C559.1 1036.6 565.6 1035 571.2 1033.8C596.9 1050.6 623.8 1065.5 651.9 1077.8C664.5 1083.3 677.2 1088.4 690.1 1093.1C689.1 1093.1 688.2 1093.1 687.2 1093.1C667.6 1093.2 648.8 1094 630.1 1096.4C611.2 1098.6 592.2 1101.9 572.3 1107.7C552.3 1113.4 531.2 1121.2 508.9 1133.7C486.6 1146 467.4 1163.2 453.5 1180.7C439.3 1198.6 429.9 1216.9 423.4 1234C410.5 1268.4 408.9 1297.5 407.8 1314.6C406.6 1329.9 406.8 1354.4 410.2 1373.4C413.3 1392.7 419 1405.3 419 1405.3C416.9 1378.4 424.6 1350.5 435.2 1327.4C445.9 1304 459.6 1283.8 474.9 1266.1C505.8 1230 540.2 1207 587.5 1181.3C650.3 1147.8 688 1131.9 713 1119.5C723.2 1114.8 731.3 1110.7 737.3 1107.6C753.2 1111.5 769.4 1114.5 785.9 1116.4C789.7 1116.8 793 1114.1 793.4 1110.3C793.8 1106.5 791.1 1103.2 787.3 1102.8L786.7 1102.7C774.4 1101.4 762 1099.3 749.8 1096.7C749 1095.5 748.1 1094.2 747.4 1093C746.3 1090.3 745.2 1087.8 744.1 1085.5C741.9 1080.7 740 1075.5 738.7 1069.9C737.3 1064.5 735.6 1059.4 734.8 1053.9C730.6 1032.3 729.5 1011.2 729.4 990.5C729.3 948.9 733.3 908.4 730.4 858.8C726.6 792.7 710.5 752.9 695.6 731.1C680.3 709.2 667.2 704.6 667.2 704.6C678.7 778 655.3 821.5 650.8 899.1C645.7 977.2 687.5 1035.8 704.9 1059.3C711.3 1068.7 722.3 1082.4 732.9 1092.7C706.9 1086 681.3 1076.9 656.7 1066.1C651.4 1063.8 646.1 1061.4 640.8 1058.9C630.8 1048.9 623.5 1036.1 619.4 1022.3C612.7 1001.2 611.6 979.2 613 957.4C614.2 935.2 618.1 914.6 620.9 888.3C623.2 865.1 626 841.3 627.9 814C633.5 741.6 622.5 693.6 609 668C602.3 655 595.6 647.1 590.5 642.4C585.5 637.7 582.3 636.2 582.3 636.2C586.8 676.8 579.8 709 571.2 740.8C562.4 772.7 550.9 804.6 544.1 848.5C542.4 859.5 541.6 870.3 541.5 880.8C541.5 886.3 541.5 890.6 541.7 894.9C541.8 899.6 542.1 904.2 542.4 909C543.8 928.1 547.4 946.7 552.6 962.9C563.1 995.9 580.1 1018.7 590.5 1030.9C590.8 1031.3 591.2 1031.7 591.5 1032.1C573.6 1021.3 556.2 1009.5 539.5 997C523.5 985.2 508 972 493 958.2C482 919.4 485.7 882.8 491.9 849.4C499.2 809.6 511.7 771.8 516.3 720.9C518.9 691.7 520.2 664 517 641.8C514.1 619.4 507.7 602.1 500.2 590.3C492.7 578.4 484.9 572.2 479.1 569.2C473.4 566.2 470 565.9 470 565.9C475.7 581.8 475.7 597.9 473.4 612.5C471.1 627.2 466.8 640.9 461.8 654.5C456.8 668.2 451 681.8 445.6 697.5C442.9 705.1 440.5 714.5 438.1 722.2C435.8 730 433.5 738.4 431.3 747.5C422.3 783.7 424.3 818.5 431.1 847.3C437.7 876.1 449.2 898.2 455.6 911.2C458.5 917.5 462.8 925.6 467.7 933.9C436.5 902.1 408.3 867.2 383.4 830C376.2 815.5 375 797.1 377.7 780.1C381.1 759.6 388.6 740.7 397.9 722.6C402.5 713.5 407.6 704.6 412.9 695.4L421.2 680.6C423.8 675.6 426.4 670.6 429 665.7C439.2 645.9 449.5 624.3 457.9 598.5C469.2 564.2 471.8 532.9 468.8 508.1C465.8 483.1 457 465.2 448.8 453.7C444.2 448 440 443.7 436.2 440.5C432.1 437.4 428.5 435.4 425.5 434C419.6 431.2 416.2 431 416.2 431C430.2 464.8 424.2 495.3 413.4 521.3C402.4 548 386.4 572.1 368.7 605.5C359.9 622.1 353.2 639.7 349.1 655.3C344.7 670.7 341.3 688.1 340.3 703.6C338.2 731.3 342.6 754.3 346.3 769.2C327.8 735.9 311.5 701.3 297.2 666C299.4 635.9 313.5 612 329.4 591.1C348.2 566.5 372.9 540.2 388.8 500.6C399.4 474.3 402.3 451 401.3 432.7C400.3 414.3 395.7 400.6 390.5 390.8C385.8 382 380.6 376.3 376.4 372.4C378.3 367.7 379.7 363.1 380.7 358.6C384.7 341.2 382.3 326.8 377.9 317.2C373.5 307.5 367.6 302 363.1 298.9C358.6 295.8 355.6 294.8 355.6 294.8C356 317.5 342.9 332.4 328.3 342C313.5 351.8 295.4 359 275.8 372.9C257.6 384.7 244.2 405.6 238.1 425.6C235.1 434.8 233.6 443.7 232.8 451.8C228.1 429.2 223.8 406.5 220.1 383.7C227.4 358.7 244 342 261.6 327.8C281 311.7 304.1 297.1 323.4 267.5C335.9 247.8 341.4 228.5 341.5 213C342.3 197.5 337.9 185.6 333.6 177.2C323.7 160.2 311.9 155.6 311.9 155.6C310.2 177.3 299.8 192.7 287.5 204.6C274.8 216.7 259.9 225.2 244.2 238.3C228.5 251.2 219.9 269.8 215.4 288.7C212.3 301.4 211.5 313.7 211.3 323.5C210.6 318.3 209.9 313 209.3 307.8C208.5 282.6 211.3 260.1 215.3 238.5C221.6 204.3 231 171.9 235.1 130.8C240.7 76.4 230.3 39.3 215.7 18.9C208.5 8.79998 200.9 3.19998 195 1.39998C189.2 -0.500023 186.2 0.0999772 186.2 0.0999772ZM345.9 434.7C333.7 453.8 318.9 470.7 303 492.7C295 503.7 289.2 515 284.9 526.7C280.4 538.5 277.4 551 275.8 563C273.5 579.5 274.4 594.5 275.6 606.2C275.2 605.9 274.8 605.5 274.5 605.2C267.3 584 260.6 562.7 254.4 541.2C251.8 532 249.4 522.7 247 513.4C248.8 506.3 252.1 499.4 256.2 493.3C263.5 482.6 273 474 283.1 466.2C293.3 458.4 304.2 451.5 315.7 443.2C321.6 438.9 327.3 434.7 333.9 428.9C340.3 423.2 345.3 418.3 351.1 411.8C355.5 406.9 359.5 401.9 363 396.8C359.4 411 353.2 423.3 345.9 434.7Z" fill="#D0D0D0"/>
</g>
<defs>
<clipPath id="clip0_1_2">
<rect width="793.7" height="1405.5" fill="white"/>
</clipPath>
</defs>
</svg>
