<svg width="768" height="150" viewBox="0 0 768 150" fill="none" xmlns="http://www.w3.org/2000/svg">
<g clip-path="url(#clip0_13_53)">
<path fill-rule="evenodd" clip-rule="evenodd" d="M181.333 89.7583C180.298 91.7332 178.875 93.4531 177.066 94.9126C175.256 96.3732 173.143 97.5621 170.728 98.4776C168.315 99.3953 165.884 100.011 163.442 100.325C161 100.64 158.628 100.613 156.33 100.239C154.03 99.8674 152.074 99.1088 150.466 97.9622L152.277 79.148C153.943 78.5756 156.04 77.9883 158.571 77.3867C161.1 76.786 163.7 76.3556 166.373 76.0983C169.046 75.8399 171.576 75.8706 173.963 76.1845C176.346 76.4993 178.229 77.2581 179.608 78.4612C180.356 79.148 180.988 79.8923 181.507 80.6945C182.023 81.4966 182.339 82.3273 182.455 83.1861C182.741 85.5915 182.368 87.7822 181.333 89.7583ZM155.035 49.6809C156.243 48.9363 157.694 48.277 159.389 47.7038C161.084 47.1326 162.825 46.7305 164.607 46.5016C166.387 46.2738 168.126 46.2432 169.823 46.4154C171.518 46.5877 173.015 47.0595 174.306 47.8324C175.599 48.6062 176.563 49.7234 177.194 51.1826C177.826 52.6444 178 54.4918 177.712 56.7251C177.481 58.5005 176.778 60.0045 175.599 61.2351C174.422 62.4679 172.983 63.4978 171.288 64.3283C169.592 65.1599 167.797 65.8182 165.9 66.3032C164.002 66.7914 162.176 67.1501 160.424 67.3779C158.672 67.6077 157.148 67.7517 155.855 67.8072C154.561 67.865 153.713 67.8933 153.311 67.8933L155.035 49.6809ZM190.646 77.6014C189.725 75.598 188.489 73.8367 186.938 72.3174C185.386 70.8002 183.545 69.6982 181.42 69.0105C182.339 68.2662 183.246 67.0923 184.137 65.488C185.025 63.8858 185.789 62.1375 186.419 60.2476C187.052 58.3566 187.484 56.4537 187.715 54.5343C187.943 52.6161 187.856 50.969 187.456 49.5937C186.476 46.1582 184.941 43.4661 182.841 41.5184C180.744 39.5719 178.302 38.2257 175.514 37.4802C172.725 36.7379 169.65 36.5789 166.289 37.0082C162.926 37.4377 159.49 38.2824 155.985 39.5424C155.985 39.2568 156.012 38.9559 156.072 38.6411C156.126 38.3272 156.156 37.9968 156.156 37.6525C156.156 36.7937 155.724 36.0502 154.863 35.4192C154.001 34.7893 153.009 34.4176 151.889 34.302C150.768 34.1887 149.675 34.4306 148.612 35.0322C147.547 35.634 146.815 36.7379 146.413 38.339C145.953 43.4944 145.493 48.8502 145.034 54.4045C144.573 59.9609 144.085 65.5742 143.568 71.245C143.051 76.9147 142.533 82.5419 142.016 88.1256C141.498 93.7103 140.981 99.0794 140.464 104.234C140.636 105.78 141.068 106.983 141.758 107.842C142.447 108.702 143.252 109.218 144.172 109.389C145.091 109.561 146.054 109.402 147.06 108.916C148.065 108.431 148.942 107.584 149.69 106.382C151.989 107.642 154.576 108.458 157.449 108.831C160.323 109.203 163.241 109.203 166.202 108.831C169.161 108.458 172.078 107.757 174.952 106.725C177.826 105.695 180.442 104.406 182.8 102.86C185.156 101.314 187.139 99.5512 188.75 97.5763C190.358 95.5991 191.42 93.4663 191.939 91.1764C192.455 88.8275 192.599 86.4798 192.371 84.1311C192.14 81.7833 191.564 79.6079 190.646 77.6014Z" fill="#0D0C23"/>
<path fill-rule="evenodd" clip-rule="evenodd" d="M274.759 122.959C274.444 124.848 273.996 126.839 273.423 128.93C272.847 131.02 272.173 132.926 271.396 134.644C270.622 136.362 269.758 137.748 268.812 138.809C267.862 139.869 266.84 140.314 265.748 140.143C264.887 140.026 264.341 139.483 264.112 138.509C263.882 137.534 263.882 136.332 264.112 134.902C264.341 133.469 264.786 131.85 265.447 130.046C266.107 128.243 266.913 126.452 267.862 124.677C268.812 122.901 269.888 121.198 271.094 119.566C272.303 117.934 273.566 116.573 274.889 115.485C275.177 115.828 275.305 116.687 275.278 118.063C275.246 119.437 275.074 121.07 274.759 122.959ZM303.989 85.6735C303.213 84.8147 302.265 84.3285 301.143 84.2129C300.023 84.0985 298.888 84.7286 297.739 86.1028C296.989 87.4773 296.041 88.7951 294.892 90.0549C293.743 91.316 292.55 92.4604 291.314 93.4915C290.078 94.5214 288.899 95.4109 287.78 96.1541C286.658 96.8996 285.78 97.4436 285.15 97.7867C284.919 95.9546 284.789 93.9786 284.761 91.8589C284.732 89.7401 284.775 87.5929 284.892 85.4163C285.063 82.323 285.422 79.2026 285.968 76.0516C286.514 72.9019 287.304 69.8086 288.339 66.7721C288.339 65.1698 287.965 63.8664 287.218 62.8636C286.47 61.862 285.566 61.231 284.503 60.9737C283.439 60.7165 282.347 60.8593 281.227 61.403C280.105 61.9482 279.143 62.9365 278.337 64.3665C277.649 66.2575 276.856 68.3764 275.968 70.7241C275.074 73.0728 274.069 75.4642 272.95 77.8981C271.828 80.334 270.578 82.6959 269.198 84.9856C267.818 87.2778 266.31 89.3117 264.67 91.086C263.034 92.8614 261.25 94.2512 259.326 95.2528C257.398 96.2555 255.316 96.699 253.075 96.5848C252.038 96.298 251.291 95.5254 250.832 94.2642C250.372 93.0053 250.1 91.4294 250.014 89.5395C249.927 87.6496 250.014 85.5732 250.272 83.3105C250.532 81.0489 250.875 78.8005 251.307 76.5672C251.739 74.3328 252.214 72.214 252.73 70.2096C253.246 68.2052 253.735 66.5148 254.195 65.1403C254.885 63.4805 254.885 62.0898 254.195 60.9737C253.505 59.8565 252.556 59.1131 251.35 58.7393C250.144 58.3676 248.878 58.3829 247.555 58.783C246.235 59.1839 245.284 60.0713 244.711 61.4455C243.733 63.7956 242.842 66.4287 242.038 69.3497C241.234 72.2706 240.587 75.293 240.098 78.4135C239.609 81.5362 239.335 84.6294 239.278 87.6932C239.276 87.8927 239.285 88.0823 239.282 88.2806C238.03 91.6103 236.836 94.1269 235.7 95.8107C234.236 97.9885 232.581 98.9334 230.742 98.6458C229.936 98.3024 229.406 97.5014 229.15 96.2402C228.887 94.9814 228.803 93.4349 228.887 91.6005C228.976 89.7693 229.191 87.6932 229.536 85.3726C229.881 83.0532 230.31 80.6479 230.827 78.1562C231.345 75.6636 231.891 73.1601 232.467 70.6391C233.041 68.1191 233.557 65.7421 234.021 63.5077C233.961 61.5033 233.372 59.9721 232.25 58.9116C231.131 57.8533 229.563 57.4379 227.553 57.6657C226.173 58.239 225.152 58.9845 224.491 59.9002C223.829 60.8156 223.299 61.9907 222.897 63.4216C222.666 64.1671 222.321 65.656 221.862 67.8904C221.4 70.1226 220.813 72.6871 220.093 75.5786C219.376 78.4724 218.528 81.4925 217.55 84.6424C216.573 87.7924 215.481 90.6434 214.274 93.1906C213.066 95.739 211.745 97.7867 210.308 99.3335C208.871 100.879 207.32 101.51 205.652 101.223C204.731 101.051 204.144 100.106 203.886 98.3885C203.625 96.6697 203.582 94.5521 203.755 92.0309C203.927 89.5111 204.272 86.7471 204.79 83.7411C205.307 80.734 205.837 77.8848 206.385 75.1916C206.931 72.5007 207.434 70.1226 207.893 68.0615C208.352 65.9994 208.67 64.6249 208.841 63.9384C208.841 62.2772 208.467 60.9463 207.722 59.9427C206.972 58.942 206.068 58.3109 205.005 58.0528C203.941 57.7955 202.848 57.9383 201.729 58.4821C200.607 59.0272 199.645 60.0155 198.839 61.4455C198.553 62.9923 198.179 64.783 197.719 66.8157C197.258 68.8484 196.815 70.9389 196.383 73.0872C195.953 75.2352 195.549 77.3399 195.176 79.4021C194.802 81.4642 194.53 83.268 194.356 84.8147C194.242 86.0167 194.112 87.4926 193.968 89.2386C193.824 90.9868 193.753 92.8331 193.753 94.7799C193.753 96.7285 193.895 98.6609 194.185 100.579C194.471 102.499 194.989 104.26 195.736 105.862C196.483 107.467 197.532 108.783 198.885 109.814C200.233 110.845 201.944 111.417 204.014 111.533C206.138 111.646 207.994 111.491 209.575 111.06C211.156 110.631 212.593 109.957 213.886 109.04C215.179 108.126 216.358 107.037 217.423 105.776C218.483 104.517 219.534 103.143 220.569 101.653C221.546 103.83 222.81 105.519 224.361 106.722C225.915 107.924 227.553 108.641 229.278 108.869C231 109.097 232.755 108.856 234.537 108.139C236.317 107.424 237.928 106.207 239.365 104.488C240.311 103.434 241.204 102.236 242.042 100.912C242.396 101.532 242.776 102.13 243.201 102.683C244.61 104.517 246.523 105.776 248.938 106.464C251.522 107.151 254.051 107.267 256.523 106.808C258.995 106.35 261.353 105.519 263.594 104.317C265.835 103.113 267.919 101.668 269.845 99.9775C271.771 98.2882 273.452 96.5281 274.889 94.6937C274.83 96.0113 274.803 97.2583 274.803 98.431C274.803 99.606 274.773 100.879 274.716 102.254C271.842 104.26 269.125 106.665 266.568 109.471C264.01 112.276 261.768 115.269 259.842 118.449C257.916 121.627 256.408 124.848 255.316 128.113C254.224 131.379 253.692 134.429 253.722 137.264C253.749 140.099 254.425 142.576 255.746 144.694C257.069 146.814 259.226 148.331 262.214 149.247C265.319 150.223 268.047 150.248 270.407 149.334C272.762 148.418 274.816 146.899 276.571 144.781C278.323 142.661 279.76 140.099 280.882 137.09C282.002 134.084 282.893 130.949 283.555 127.684C284.215 124.42 284.631 121.21 284.805 118.063C284.976 114.912 284.976 112.104 284.805 109.642C289.747 107.581 293.8 104.975 296.962 101.824C300.124 98.6762 302.737 95.3531 304.807 91.8589C305.44 90.9998 305.655 89.9687 305.456 88.7665C305.253 87.5634 304.766 86.5323 303.989 85.6735Z" fill="#0D0C23"/>
<path fill-rule="evenodd" clip-rule="evenodd" d="M412.752 80.1777C412.926 78.8612 413.184 77.4715 413.529 76.0111C413.874 74.5505 414.306 73.1326 414.822 71.7581C415.338 70.3837 415.942 69.1956 416.634 68.1929C417.324 67.1913 418.055 66.4753 418.832 66.0448C419.609 65.6164 420.397 65.6589 421.203 66.1734C422.065 66.69 422.595 67.7778 422.798 69.4376C422.999 71.1008 422.798 72.8754 422.195 74.7653C421.589 76.6563 420.513 78.4306 418.96 80.0916C417.411 81.7539 415.311 82.8405 412.668 83.3559C412.551 82.556 412.581 81.4955 412.752 80.1777ZM442.629 83.6993C441.681 83.4149 440.776 83.3854 439.913 83.6143C439.051 83.8432 438.503 84.4448 438.274 85.4192C437.813 87.2513 437.08 89.127 436.074 91.0453C435.069 92.9646 433.833 94.7828 432.369 96.5016C430.904 98.2192 429.25 99.7374 427.411 101.054C425.572 102.372 423.646 103.317 421.635 103.889C419.62 104.52 417.954 104.591 416.634 104.104C415.311 103.619 414.262 102.787 413.486 101.613C412.711 100.439 412.149 99.0213 411.804 97.3604C411.459 95.6994 411.258 93.9815 411.201 92.205C414.477 92.435 417.395 91.8486 419.954 90.4437C422.51 89.0421 424.678 87.1793 426.463 84.8602C428.242 82.5407 429.595 79.9348 430.513 77.0422C431.432 74.1504 431.95 71.272 432.067 68.4077C432.124 65.7156 431.722 63.4398 430.861 61.5782C429.997 59.7178 428.832 58.2693 427.367 57.2394C425.903 56.2083 424.219 55.6065 422.323 55.4354C420.426 55.2634 418.5 55.5215 416.547 56.2083C414.189 57.0105 412.192 58.313 410.554 60.1179C408.916 61.9216 407.55 64.013 406.458 66.3891C405.366 68.7663 404.504 71.3286 403.872 74.0776C403.239 76.8274 402.78 79.5336 402.492 82.1974C402.234 84.5876 402.096 86.8732 402.046 89.0791C401.923 89.3592 401.804 89.6285 401.674 89.9283C400.783 91.963 399.745 93.9532 398.569 95.8998C397.39 97.8475 396.083 99.4804 394.646 100.797C393.209 102.115 391.715 102.572 390.163 102.171C389.243 101.943 388.74 100.882 388.653 98.993C388.569 97.102 388.667 94.7545 388.955 91.9477C389.243 89.1424 389.574 86.1049 389.946 82.8405C390.321 79.5761 390.506 76.4557 390.506 73.4769C390.506 70.8993 390.017 68.423 389.042 66.0448C388.064 63.6699 386.727 61.6927 385.032 60.1179C383.337 58.5417 381.367 57.4964 379.126 56.9821C376.885 56.4653 374.47 56.8099 371.884 58.0121C369.295 59.2154 367.241 60.9047 365.72 63.0813C364.193 65.2589 362.8 67.5488 361.536 69.9544C361.075 68.1211 360.401 66.4186 359.51 64.8426C358.619 63.2675 357.529 61.8933 356.234 60.7183C354.94 59.5456 353.487 58.6289 351.881 57.9696C350.27 57.3123 348.573 56.9821 346.791 56.9821C345.068 56.9821 343.474 57.3123 342.007 57.9696C340.542 58.6289 339.206 59.4724 337.997 60.5035C336.791 61.5358 335.699 62.6943 334.721 63.9838C333.745 65.2719 332.879 66.5472 332.135 67.8061C332.018 66.3171 331.89 65.0149 331.746 63.8965C331.602 62.7805 331.344 61.8355 330.969 61.0628C330.597 60.289 330.065 59.7025 329.375 59.3013C328.685 58.9015 327.709 58.6998 326.446 58.6998C325.811 58.6998 325.178 58.8284 324.547 59.0857C323.914 59.3438 323.352 59.7025 322.866 60.1604C322.377 60.6203 322.004 61.1773 321.746 61.8355C321.486 62.4937 321.415 63.2534 321.529 64.1124C321.586 64.7435 321.746 65.5008 322.004 66.3891C322.262 67.2774 322.507 68.4383 322.738 69.8682C322.966 71.3003 323.153 73.0332 323.297 75.0661C323.439 77.0998 323.482 79.5914 323.425 82.5407C323.368 85.4912 323.154 88.9408 322.779 92.8927C322.404 96.8447 321.815 101.427 321.013 106.638C320.896 107.841 321.355 108.815 322.393 109.56C323.425 110.303 324.604 110.733 325.927 110.848C327.248 110.963 328.5 110.733 329.676 110.162C330.855 109.587 331.531 108.586 331.703 107.154C331.876 104.462 332.205 101.599 332.694 98.5626C333.183 95.5283 333.786 92.5212 334.506 89.5424C335.224 86.5648 336.041 83.7299 336.964 81.0367C337.883 78.3444 338.904 75.9686 340.024 73.9064C341.145 71.8443 342.308 70.1984 343.517 68.9669C344.723 67.7353 345.987 67.1195 347.31 67.1195C348.92 67.1195 350.168 67.8486 351.061 69.3092C351.95 70.7707 352.583 72.6476 352.957 74.9364C353.332 77.2284 353.503 79.7354 353.476 82.4546C353.444 85.175 353.332 87.7953 353.131 90.3151C352.928 92.836 352.699 95.0835 352.439 97.0595C352.181 99.0355 351.995 100.397 351.881 101.14C351.881 102.458 352.384 103.502 353.389 104.276C354.394 105.049 355.514 105.508 356.752 105.65C357.988 105.794 359.151 105.564 360.243 104.962C361.335 104.361 361.968 103.346 362.139 101.913C362.715 97.7899 363.506 93.6526 364.511 89.4999C365.516 85.3472 366.665 81.6253 367.961 78.3314C369.254 75.0376 370.689 72.3455 372.272 70.255C373.853 68.1657 375.532 67.1195 377.317 67.1195C378.235 67.1195 378.939 67.7506 379.428 69.0094C379.914 70.2692 380.161 71.9871 380.161 74.1637C380.161 75.768 380.031 77.4148 379.773 79.1041C379.515 80.7936 379.213 82.5407 378.868 84.3445C378.523 86.1494 378.221 87.9957 377.961 89.8858C377.703 91.7766 377.575 93.7517 377.575 95.8139C377.575 97.2459 377.719 98.9069 378.004 100.797C378.292 102.686 378.838 104.478 379.642 106.166C380.449 107.856 381.555 109.287 382.964 110.461C384.372 111.635 386.168 112.223 388.352 112.223C391.628 112.223 394.53 111.521 397.061 110.118C399.59 108.715 401.761 106.883 403.57 104.62C403.664 104.502 403.751 104.375 403.842 104.257C403.981 104.592 404.102 104.946 404.26 105.264C405.496 107.784 407.178 109.731 409.305 111.106C411.429 112.481 413.931 113.239 416.805 113.383C419.679 113.525 422.812 112.995 426.204 111.793C428.731 110.876 430.932 109.731 432.798 108.357C434.667 106.982 436.348 105.307 437.843 103.331C439.339 101.355 440.703 99.078 441.939 96.5016C443.175 93.9228 444.425 90.9744 445.688 87.6514C445.919 86.7368 445.704 85.9205 445.044 85.2033C444.381 84.4884 443.577 83.987 442.629 83.6993Z" fill="#0D0C23"/>
<path fill-rule="evenodd" clip-rule="evenodd" d="M489.49 74.1175C489.202 75.8082 488.814 77.6707 488.327 79.7024C487.836 81.7363 487.219 83.8407 486.472 86.0173C485.725 88.1939 484.804 90.1558 483.715 91.9018C482.62 93.65 481.37 95.0375 479.963 96.0686C478.553 97.0997 476.931 97.5292 475.09 97.3569C474.171 97.2436 473.465 96.6135 472.979 95.467C472.49 94.3226 472.232 92.8609 472.202 91.0855C472.172 89.3112 472.33 87.3635 472.677 85.2435C473.022 83.1258 473.552 81.0483 474.272 79.0145C474.989 76.983 475.867 75.1061 476.902 73.3873C477.937 71.6697 479.129 70.3377 480.479 69.3928C481.83 68.4478 483.31 68.0053 484.921 68.061C486.529 68.1186 488.254 68.9198 490.093 70.4663C489.977 71.2118 489.778 72.4294 489.49 74.1175ZM520.142 80.6899C519.251 80.232 518.332 80.1329 517.382 80.3901C516.436 80.6474 515.757 81.5215 515.358 83.0102C515.127 84.6148 514.61 86.5035 513.806 88.6801C513 90.8565 512.008 92.9198 510.832 94.8655C509.65 96.813 508.3 98.4316 506.779 99.7198C505.255 101.009 503.63 101.597 501.908 101.48C500.468 101.367 499.463 100.637 498.889 99.2905C498.311 97.9443 498.012 96.2562 497.982 94.2212C497.953 92.1896 498.156 89.8986 498.586 87.3493C499.017 84.801 499.536 82.267 500.137 79.7449C500.742 77.2261 501.359 74.8054 501.992 72.486C502.625 70.1666 503.141 68.2047 503.546 66.6016C504.005 65.1693 503.861 63.9529 503.114 62.9493C502.367 61.9486 501.432 61.2314 500.313 60.8021C499.189 60.3726 498.053 60.2581 496.904 60.4587C495.755 60.6593 495.008 61.275 494.663 62.305C491.27 59.384 488.01 57.8092 484.877 57.5802C481.743 57.3513 478.855 58.039 476.212 59.6424C473.566 61.2456 471.224 63.565 469.184 66.6016C467.144 69.6381 465.492 72.9448 464.226 76.5242C462.963 80.1034 462.17 83.7557 461.857 87.4779C461.539 91.2011 461.784 94.595 462.588 97.6587C463.395 100.723 464.816 103.23 466.858 105.175C468.896 107.123 471.67 108.097 475.177 108.097C476.73 108.097 478.224 107.782 479.662 107.152C481.096 106.521 482.419 105.776 483.628 104.918C484.834 104.059 485.896 103.156 486.817 102.211C487.736 101.267 488.455 100.48 488.974 99.8484C489.374 101.911 490.036 103.659 490.957 105.09C491.875 106.521 492.924 107.697 494.103 108.612C495.28 109.527 496.518 110.201 497.811 110.631C499.104 111.061 500.354 111.275 501.56 111.275C504.263 111.275 506.79 110.359 509.15 108.525C511.506 106.694 513.619 104.445 515.488 101.782C517.354 99.1182 518.892 96.3128 520.098 93.3624C521.307 90.4131 522.111 87.7928 522.513 85.5008C522.915 84.6419 522.844 83.7406 522.298 82.7957C521.75 81.8505 521.033 81.1498 520.142 80.6899Z" fill="#0D0C23"/>
<path fill-rule="evenodd" clip-rule="evenodd" d="M675.343 128.119C674.854 130.066 674.091 131.714 673.056 133.058C672.023 134.404 670.73 135.107 669.177 135.165C668.201 135.222 667.454 134.705 666.935 133.618C666.419 132.528 666.06 131.126 665.859 129.408C665.656 127.69 665.569 125.77 665.599 123.652C665.629 121.533 665.713 119.442 665.859 117.38C666.001 115.319 666.172 113.399 666.376 111.624C666.577 109.848 666.734 108.475 666.849 107.501C668.802 107.73 670.429 108.573 671.72 110.035C673.015 111.496 674.007 113.227 674.696 115.233C675.386 117.237 675.786 119.4 675.903 121.719C676.017 124.038 675.83 126.171 675.343 128.119ZM644.13 128.119C643.643 130.066 642.88 131.714 641.845 133.058C640.812 134.404 639.517 135.107 637.965 135.165C636.988 135.222 636.241 134.705 635.724 133.618C635.206 132.528 634.847 131.126 634.646 129.408C634.443 127.69 634.358 125.77 634.388 123.652C634.415 121.533 634.502 119.442 634.646 117.38C634.788 115.319 634.961 113.399 635.164 111.624C635.363 109.848 635.521 108.475 635.637 107.501C637.591 107.73 639.215 108.573 640.508 110.035C641.801 111.496 642.793 113.227 643.483 115.233C644.173 117.237 644.575 119.4 644.692 121.719C644.806 124.038 644.619 126.171 644.13 128.119ZM612.101 79.3221C612.041 80.6955 611.911 81.913 611.71 82.9724C611.509 84.0339 611.237 84.7053 610.892 84.992C610.259 84.6475 609.482 83.7615 608.564 82.3281C607.643 80.8972 606.926 79.2776 606.407 77.4738C605.891 75.6698 605.731 73.8955 605.934 72.1473C606.133 70.4011 607.04 69.0422 608.648 68.0666C609.281 67.7232 609.827 67.8518 610.289 68.4536C610.748 69.0552 611.12 69.9282 611.408 71.0737C611.696 72.2202 611.897 73.5368 612.011 75.0258C612.128 76.5156 612.155 77.9467 612.101 79.3221ZM604.467 96.4612C603.576 97.405 602.585 98.2213 601.493 98.9092C600.401 99.5969 599.279 100.112 598.132 100.456C596.98 100.8 595.945 100.885 595.027 100.713C592.438 100.198 590.455 99.0803 589.078 97.3625C587.698 95.6449 586.82 93.6263 586.448 91.3069C586.073 88.9866 586.117 86.5091 586.578 83.8748C587.035 81.2404 587.812 78.7925 588.904 76.5298C589.996 74.2673 591.319 72.3195 592.87 70.6878C594.422 69.0552 596.117 68.0394 597.958 67.6371C597.268 70.5581 597.038 73.5805 597.268 76.7009C597.497 79.8225 598.246 82.7576 599.51 85.5063C600.314 87.1696 601.278 88.6857 602.397 90.0602C603.519 91.4356 604.885 92.6094 606.494 93.5827C606.035 94.5571 605.358 95.5162 604.467 96.4612ZM699.874 80.1812C700.045 78.8645 700.303 77.4738 700.648 76.0132C700.993 74.5537 701.425 73.1359 701.941 71.7614C702.46 70.386 703.063 69.198 703.753 68.1964C704.443 67.1948 705.174 66.4776 705.951 66.0481C706.728 65.6185 707.516 65.661 708.323 66.1767C709.184 66.6933 709.716 67.781 709.917 69.4411C710.118 71.1032 709.917 72.8775 709.314 74.7685C708.711 76.6584 707.633 78.4338 706.081 80.0939C704.53 81.7572 702.43 82.8437 699.787 83.3592C699.67 82.5582 699.7 81.4988 699.874 80.1812ZM734.622 80.1812C734.793 78.8645 735.051 77.4738 735.396 76.0132C735.741 74.5537 736.173 73.1359 736.689 71.7614C737.208 70.386 737.811 69.198 738.501 68.1964C739.191 67.1948 739.924 66.4776 740.699 66.0481C741.476 65.6185 742.266 65.661 743.07 66.1767C743.932 66.6933 744.464 67.781 744.665 69.4411C744.866 71.1032 744.665 72.8775 744.062 74.7685C743.459 76.6584 742.38 78.4338 740.829 80.0939C739.278 81.7572 737.178 82.8437 734.535 83.3592C734.418 82.5582 734.448 81.4988 734.622 80.1812ZM766.911 85.2066C766.249 84.4917 765.447 83.9904 764.496 83.7026C763.548 83.417 762.643 83.3886 761.78 83.6176C760.918 83.8465 760.372 84.4481 760.142 85.4213C759.682 87.2546 758.949 89.1303 757.944 91.0476C756.938 92.9679 755.703 94.7861 754.238 96.5037C752.771 98.2213 751.117 99.7409 749.28 101.057C747.439 102.375 745.513 103.32 743.502 103.891C741.489 104.523 739.822 104.594 738.501 104.107C737.178 103.621 736.13 102.79 735.353 101.617C734.578 100.442 734.018 99.0246 733.671 97.3625C733.328 95.7027 733.125 93.9848 733.068 92.2082C736.347 92.4383 739.264 91.8518 741.821 90.447C744.377 89.0444 746.548 87.1817 748.332 84.8623C750.112 82.544 751.462 79.9381 752.383 77.0454C753.301 74.1528 753.82 71.2752 753.934 68.4109C753.991 65.7188 753.589 63.4422 752.728 61.5806C751.866 59.7199 750.701 58.2726 749.237 57.2426C747.77 56.2104 746.089 55.6098 744.19 55.4377C742.296 55.2655 740.368 55.5248 738.414 56.2104C736.056 57.0137 734.06 58.3162 732.424 60.12C730.786 61.9249 729.419 64.0165 728.327 66.3915C727.233 68.7696 726.372 71.331 725.739 74.0808C725.106 76.8295 724.647 79.5369 724.361 82.1997C724.082 84.7839 723.929 87.2569 723.895 89.624C723.678 90.096 723.445 90.5701 723.196 91.0476C722.188 92.9679 720.955 94.7861 719.488 96.5037C718.023 98.2213 716.369 99.7409 714.53 101.057C712.691 102.375 710.765 103.32 708.754 103.891C706.739 104.523 705.074 104.594 703.753 104.107C702.43 103.621 701.382 102.79 700.605 101.617C699.83 100.442 699.268 99.0246 698.926 97.3625C698.578 95.7027 698.377 93.9848 698.32 92.2082C701.596 92.4383 704.514 91.8518 707.073 90.447C709.629 89.0444 711.8 87.1817 713.582 84.8623C715.364 82.544 716.714 79.9381 717.635 77.0454C718.553 74.1528 719.072 71.2752 719.186 68.4109C719.243 65.7188 718.841 63.4422 717.98 61.5806C717.116 59.7199 715.953 58.2726 714.487 57.2426C713.022 56.2104 711.341 55.6098 709.444 55.4377C707.546 55.2655 705.62 55.5248 703.666 56.2104C701.309 57.0137 699.312 58.3162 697.674 60.12C696.035 61.9249 694.669 64.0165 693.579 66.3915C692.487 68.7696 691.624 71.331 690.993 74.0808C690.358 76.8295 689.899 79.5369 689.613 82.1997C689.449 83.7014 689.341 85.1577 689.261 86.5877C688.704 87.0585 688.162 87.5326 687.587 87.998C685.604 89.6023 683.518 91.0476 681.336 92.3369C679.149 93.6263 676.878 94.6858 674.523 95.5162C672.165 96.3467 669.752 96.8482 667.28 97.0193L672.627 39.9738C672.972 38.7707 672.798 37.7122 672.11 36.7956C671.42 35.879 670.529 35.2491 669.437 34.9057C668.345 34.5614 667.18 34.5909 665.944 34.9907C664.708 35.393 663.689 36.3096 662.882 37.7396C662.48 39.9172 662.064 42.8948 661.635 46.6748C661.201 50.4546 660.771 54.5789 660.34 59.0464C659.91 63.5139 659.478 68.1244 659.046 72.8775C658.617 77.6328 658.24 82.0711 657.927 86.1942C657.911 86.3772 657.899 86.5429 657.886 86.7238C657.383 87.149 656.894 87.5772 656.373 87.998C654.392 89.6023 652.307 91.0476 650.122 92.3369C647.936 93.6263 645.667 94.6858 643.312 95.5162C640.954 96.3467 638.539 96.8482 636.069 97.0193L641.413 39.9738C641.76 38.7707 641.587 37.7122 640.897 36.7956C640.207 35.879 639.316 35.2491 638.224 34.9057C637.132 34.5614 635.969 34.5909 634.73 34.9907C633.494 35.393 632.475 36.3096 631.671 37.7396C631.269 39.9172 630.851 42.8948 630.421 46.6748C629.99 50.4546 629.558 54.5789 629.128 59.0464C628.697 63.5139 628.265 68.1244 627.833 72.8775C627.403 77.6328 627.029 82.0711 626.713 86.1942C626.707 86.2769 626.702 86.3521 626.695 86.435C625.79 86.8525 624.808 87.2187 623.739 87.526C622.644 87.8422 621.411 88.0284 620.031 88.085C620.261 87.0531 620.447 85.9075 620.59 84.6475C620.734 83.3886 620.851 82.0711 620.938 80.6955C621.022 79.3221 621.05 77.9467 621.022 76.5723C620.993 75.1969 620.922 73.938 620.807 72.7913C620.52 70.3303 619.99 67.9958 619.213 65.7897C618.436 63.5859 617.387 61.7396 616.067 60.2486C614.742 58.7597 613.09 57.7569 611.107 57.2426C609.124 56.727 606.809 56.8981 604.166 57.7569C600.257 57.2426 596.736 57.6011 593.604 58.8316C590.471 60.0645 587.755 61.8529 585.454 64.2007C583.158 66.5505 581.275 69.3124 579.809 72.4916C578.342 75.6698 577.364 78.9353 576.875 82.2847C576.67 83.7049 576.569 85.1184 576.537 86.5287C575.648 88.3446 574.675 89.9315 573.599 91.2633C572.077 93.1532 570.496 94.6999 568.858 95.9021C567.22 97.1052 565.596 98.0219 563.987 98.652C562.377 99.283 560.939 99.7125 559.676 99.9403C558.182 100.227 556.742 100.256 555.365 100.026C553.985 99.7984 552.719 99.1391 551.572 98.0504C550.651 97.2492 549.946 95.9599 549.459 94.1843C548.97 92.4088 548.682 90.3914 548.598 88.1278C548.511 85.865 548.598 83.502 548.856 81.04C549.114 78.5778 549.557 76.2433 550.192 74.0383C550.823 71.8334 551.627 69.8573 552.605 68.1091C553.58 66.364 554.732 65.1173 556.055 64.3729C556.8 64.4883 557.261 64.9309 557.435 65.7035C557.606 66.4776 557.649 67.3942 557.563 68.4536C557.478 69.5139 557.348 70.6017 557.177 71.7178C557.003 72.835 556.916 73.7669 556.916 74.5101C557.204 76.0568 557.764 77.26 558.598 78.119C559.429 78.9778 560.366 79.4802 561.401 79.6219C562.436 79.7658 563.455 79.5227 564.462 78.8917C565.465 78.2627 566.286 77.26 566.918 75.8846C566.976 75.9424 567.062 75.9707 567.177 75.9707L568.385 65.0606C568.728 63.5706 568.497 62.2541 567.695 61.1086C566.889 59.963 565.826 59.3037 564.504 59.1325C562.836 56.727 560.581 55.4531 557.736 55.3091C554.89 55.1663 551.972 56.0971 548.984 58.1015C547.144 59.4202 545.52 61.2372 544.113 63.5564C542.703 65.8769 541.554 68.4536 540.663 71.2885C539.772 74.1233 539.139 77.1174 538.767 80.2671C538.392 83.417 538.321 86.4819 538.549 89.4584C538.78 92.4383 539.313 95.2448 540.147 97.8781C540.978 100.514 542.143 102.718 543.64 104.493C544.903 106.04 546.338 107.172 547.949 107.888C549.557 108.604 551.239 109.047 552.993 109.219C554.746 109.39 556.484 109.318 558.212 109.004C559.934 108.69 561.572 108.247 563.124 107.672C565.136 106.929 567.206 105.983 569.333 104.837C571.458 103.693 573.498 102.317 575.454 100.713C576.482 99.8695 577.471 98.9494 578.429 97.9631C578.865 99.0399 579.352 100.082 579.939 101.057C581.49 103.634 583.588 105.726 586.231 107.329C588.874 108.932 592.123 109.704 595.975 109.648C600.115 109.59 603.935 108.546 607.442 106.512C610.949 104.481 613.823 101.486 616.067 97.5348C619.423 97.5348 622.727 96.9832 625.973 95.888C625.948 96.2346 625.918 96.5996 625.893 96.9341C625.665 99.9696 625.548 102.031 625.548 103.119C625.493 105.009 625.363 107.343 625.162 110.12C624.961 112.898 624.831 115.819 624.774 118.883C624.717 121.947 624.831 125.04 625.119 128.163C625.407 131.283 626.01 134.118 626.928 136.668C627.849 139.215 629.156 141.379 630.851 143.154C632.546 144.929 634.776 145.989 637.536 146.332C640.465 146.732 642.994 146.218 645.121 144.785C647.248 143.353 648.973 141.393 650.296 138.902C651.617 136.41 652.551 133.531 653.097 130.267C653.643 127.003 653.801 123.723 653.572 120.43C653.341 117.136 652.738 114.03 651.76 111.11C650.783 108.188 649.432 105.782 647.707 103.891C648.745 103.607 649.978 103.063 651.415 102.26C652.85 101.458 654.333 100.556 655.857 99.5533C656.229 99.307 656.599 99.0477 656.972 98.7948C656.832 100.824 656.762 102.272 656.762 103.119C656.705 105.009 656.577 107.343 656.373 110.12C656.174 112.898 656.044 115.819 655.987 118.883C655.93 121.947 656.044 125.04 656.33 128.163C656.618 131.283 657.223 134.118 658.142 136.668C659.06 139.215 660.369 141.379 662.064 143.154C663.76 144.929 665.987 145.989 668.747 146.332C671.678 146.732 674.208 146.218 676.335 144.785C678.462 143.353 680.184 141.393 681.507 138.902C682.83 136.41 683.762 133.531 684.31 130.267C684.856 127.003 685.012 123.723 684.783 120.43C684.553 117.136 683.949 114.03 682.974 111.11C681.996 108.188 680.646 105.782 678.921 103.891C679.956 103.607 681.192 103.063 682.629 102.26C684.064 101.458 685.544 100.556 687.07 99.5533C687.861 99.0324 688.647 98.495 689.433 97.9424C689.73 100.744 690.365 103.2 691.379 105.267C692.615 107.788 694.297 109.734 696.424 111.11C698.549 112.483 701.05 113.243 703.927 113.385C706.799 113.527 709.931 112.998 713.324 111.795C715.853 110.88 718.051 109.734 719.92 108.36C721.786 106.984 723.468 105.309 724.962 103.334C725.049 103.22 725.131 103.095 725.216 102.98C725.481 103.782 725.778 104.553 726.127 105.267C727.363 107.788 729.045 109.734 731.172 111.11C733.297 112.483 735.798 113.243 738.672 113.385C741.547 113.527 744.679 112.998 748.072 111.795C750.601 110.88 752.799 109.734 754.668 108.36C756.534 106.984 758.216 105.309 759.712 103.334C761.206 101.357 762.57 99.0804 763.806 96.5037C765.042 93.9261 766.292 90.9777 767.558 87.6546C767.788 86.7391 767.571 85.9228 766.911 85.2066Z" fill="#0D0C23"/>
<path d="M88.9747 33.4615L88.876 33.4034L88.6477 33.3337C88.7395 33.4112 88.8545 33.4562 88.9747 33.4615Z" fill="#0D0C22"/>
<path d="M89.0151 33.4459C89.0011 33.444 88.9874 33.4406 88.974 33.436C88.9733 33.4452 88.9733 33.4543 88.974 33.4635C88.989 33.4614 89.0034 33.4552 89.0151 33.4459Z" fill="#0D0C22"/>
<path d="M88.9736 33.463H88.9882V33.4539L88.9736 33.463Z" fill="#0D0C22"/>
<path d="M90.3211 43.7192L90.4876 43.6244L90.5495 43.5896L90.6055 43.5295C90.5 43.575 90.4038 43.6394 90.3211 43.7192Z" fill="#0D0C22"/>
<path d="M89.2641 33.6859L89.1016 33.531L88.9913 33.4709C89.0505 33.5756 89.1485 33.6528 89.2641 33.6859Z" fill="#0D0C22"/>
<path d="M48.3629 133.408C48.2329 133.463 48.1191 133.552 48.0318 133.664L48.1344 133.597C48.2041 133.533 48.3028 133.458 48.3629 133.408Z" fill="#0D0C22"/>
<path d="M72.1139 128.734C72.1139 128.587 72.0421 128.614 72.0597 129.137C72.0597 129.094 72.0771 129.052 72.0849 129.011C72.0945 128.918 72.1022 128.827 72.1139 128.734Z" fill="#0D0C22"/>
<path d="M69.648 133.408C69.518 133.463 69.4042 133.552 69.317 133.664L69.4195 133.597C69.4892 133.533 69.5879 133.458 69.648 133.408Z" fill="#0D0C22"/>
<path d="M31.6379 134.518C31.5392 134.431 31.4186 134.376 31.2895 134.355C31.3939 134.406 31.4985 134.456 31.5682 134.495L31.6379 134.518Z" fill="#0D0C22"/>
<path d="M27.875 130.914C27.8595 130.762 27.8127 130.614 27.7375 130.48C27.7907 130.62 27.8355 130.762 27.8711 130.906L27.875 130.914Z" fill="#0D0C22"/>
<path d="M53.1573 66.4503C47.9905 68.6621 42.1268 71.17 34.5275 71.17C31.3484 71.1636 28.1848 70.7277 25.1226 69.8735L30.3785 123.836C30.5645 126.091 31.5919 128.194 33.257 129.727C34.9219 131.26 37.1024 132.111 39.3653 132.111C39.3653 132.111 46.8178 132.498 49.3044 132.498C51.9807 132.498 60.0059 132.111 60.0059 132.111C62.2687 132.111 64.4487 131.259 66.1134 129.727C67.7778 128.194 68.805 126.091 68.9909 123.836L74.6204 64.2054C72.1047 63.3461 69.5658 62.7754 66.7037 62.7754C61.7535 62.7733 57.7651 64.4782 53.1573 66.4503Z" fill="#FFDD00"/>
<path d="M8.84851 43.4275L8.93761 43.5107L8.99564 43.5454C8.95086 43.5011 8.90174 43.4615 8.84851 43.4275Z" fill="#0D0C22"/>
<path d="M98.923 38.447L98.1315 34.4547C97.4212 30.8728 95.8094 27.4883 92.1324 26.1935C90.9539 25.7793 89.6167 25.6013 88.7131 24.7441C87.8093 23.8869 87.5422 22.5554 87.3332 21.3207C86.9461 19.0548 86.5824 16.7865 86.1858 14.5245C85.8431 12.5795 85.5724 10.3946 84.6802 8.61053C83.5191 6.21481 81.1097 4.8136 78.7139 3.88671C77.4864 3.4284 76.2337 3.04092 74.9618 2.72563C68.9761 1.14668 62.683 0.565914 56.5253 0.235091C49.1343 -0.172727 41.7237 -0.04981 34.3503 0.602698C28.862 1.10213 23.0817 1.70574 17.8665 3.60432C15.9603 4.29886 13.996 5.13301 12.5466 6.60572C10.7682 8.41497 10.1876 11.2133 11.4862 13.4698C12.4093 15.0721 13.9729 16.2042 15.6314 16.9531C17.7915 17.9181 20.0474 18.6522 22.3618 19.1436C28.806 20.5679 35.4803 21.1272 42.0639 21.3653C49.3607 21.6598 56.6692 21.421 63.9313 20.6511C65.7271 20.4537 67.5196 20.217 69.309 19.941C71.4164 19.6177 72.7692 16.8621 72.148 14.9423C71.4048 12.6474 69.4077 11.757 67.1495 12.1036C66.8167 12.1557 66.4856 12.2041 66.1527 12.2526L65.9128 12.2873C65.1479 12.3842 64.3828 12.4744 63.6178 12.5583C62.0373 12.7287 60.4531 12.8678 58.865 12.9763C55.3082 13.224 51.7416 13.3382 48.177 13.344C44.6743 13.344 41.1699 13.2453 37.6747 13.015C36.0802 12.9106 34.4894 12.7776 32.9027 12.6163C32.181 12.5409 31.4611 12.4616 30.7412 12.3725L30.056 12.2855L29.907 12.2642L29.1969 12.1616C27.7455 11.943 26.294 11.6914 24.8581 11.3876C24.7132 11.3554 24.5837 11.2747 24.4907 11.1589C24.3979 11.0433 24.3472 10.8993 24.3472 10.7508C24.3472 10.6023 24.3979 10.4584 24.4907 10.3426C24.5837 10.227 24.7132 10.1463 24.8581 10.1141H24.8853C26.1295 9.84906 27.3836 9.62265 28.6415 9.42526C29.0608 9.35946 29.4814 9.29503 29.9031 9.23174H29.9148C30.7023 9.17942 31.494 9.03823 32.2776 8.94524C39.0965 8.23607 45.9561 7.99412 52.8078 8.22145C56.1343 8.31832 59.459 8.51366 62.7702 8.85042C63.4824 8.92399 64.1906 9.00145 64.8989 9.08849C65.1698 9.12139 65.4426 9.16 65.7154 9.1929L66.2651 9.27241C67.8674 9.51093 69.4614 9.80063 71.0468 10.1413C73.3961 10.6521 76.413 10.8185 77.458 13.3924C77.7909 14.2089 77.9419 15.1166 78.1256 15.9739L78.3598 17.0673C78.366 17.0867 78.3706 17.1068 78.3735 17.1272C78.9269 19.7075 79.4809 22.2876 80.0356 24.8679C80.0763 25.0585 80.0774 25.2554 80.0386 25.4464C79.9998 25.6374 79.9219 25.8184 79.8101 25.9781C79.6982 26.1375 79.5547 26.2726 79.3884 26.3742C79.2221 26.4759 79.0368 26.5422 78.8437 26.5689H78.8282L78.4896 26.6153L78.1547 26.6598C77.0943 26.798 76.0324 26.9269 74.9696 27.0468C72.8757 27.2856 70.7785 27.4919 68.6782 27.6662C64.5048 28.0133 60.3229 28.2408 56.1325 28.3494C53.9972 28.406 51.8629 28.4325 49.729 28.4286C41.2354 28.422 32.7494 27.9283 24.3125 26.9502C23.3991 26.8417 22.4857 26.7256 21.5722 26.6077C22.2805 26.6987 21.0575 26.538 20.8098 26.5031C20.2293 26.4218 19.6488 26.3374 19.0682 26.2497C17.1194 25.9575 15.1824 25.5974 13.2375 25.2821C10.8863 24.8951 8.63746 25.0886 6.51087 26.2497C4.76514 27.2049 3.35206 28.6699 2.46057 30.449C1.54327 32.3455 1.27024 34.4102 0.860142 36.4479C0.449812 38.4858 -0.188757 40.6782 0.0531919 42.7703C0.573644 47.2849 3.72995 50.9541 8.26986 51.7745C12.5409 52.5486 16.8349 53.1757 21.1407 53.7096C38.0547 55.7812 55.1423 56.0291 72.1094 54.449C73.4909 54.3199 74.8709 54.1794 76.2485 54.0272C76.679 53.9799 77.1144 54.0295 77.5232 54.1723C77.9319 54.3151 78.3034 54.5474 78.6107 54.8524C78.918 55.1574 79.1531 55.5273 79.2988 55.9352C79.4446 56.3427 79.4974 56.7778 79.4533 57.2084L79.0238 61.3846C78.1581 69.8233 77.2924 78.2614 76.4267 86.6987C75.5236 95.5592 74.6148 104.419 73.7 113.278C73.442 115.773 73.1839 118.268 72.9259 120.761C72.6782 123.217 72.6433 125.751 72.177 128.177C71.4415 131.993 68.8582 134.338 65.0885 135.194C61.6347 135.98 58.1067 136.394 54.565 136.426C50.6385 136.446 46.7141 136.273 42.7876 136.293C38.5959 136.316 33.462 135.93 30.2264 132.809C27.3836 130.07 26.9908 125.78 26.6038 122.07C26.0877 117.158 25.5762 112.248 25.0692 107.337L22.2243 80.0339L20.384 62.3677C20.3531 62.0755 20.322 61.7872 20.293 61.4929C20.0726 59.3855 18.5804 57.3226 16.2293 57.4291C14.2167 57.5182 11.9292 59.2288 12.1655 61.4929L13.5297 74.5903L16.3513 101.683C17.1548 109.378 17.9567 117.075 18.7566 124.773C18.9115 126.248 19.0566 127.726 19.219 129.201C20.1034 137.26 26.2572 141.601 33.878 142.825C38.3288 143.54 42.8882 143.686 47.4048 143.762C53.1949 143.853 59.043 144.077 64.7383 143.028C73.1775 141.479 79.5095 135.845 80.4131 127.103C80.671 124.58 80.9292 122.055 81.1871 119.531C82.045 111.181 82.9018 102.831 83.7572 94.4799L86.5552 67.1941L87.8383 54.6889C87.9023 54.0688 88.1641 53.4857 88.5852 53.0261C89.0062 52.5664 89.5639 52.2545 90.176 52.1364C92.5891 51.6662 94.896 50.8631 96.6124 49.0267C99.3449 46.1025 99.8887 42.2903 98.923 38.447ZM8.14602 41.1448C8.1828 41.1272 8.11495 41.4427 8.08593 41.5898C8.08022 41.3673 8.09187 41.1699 8.14602 41.1448ZM8.3802 42.9561C8.39962 42.9424 8.45765 43.0198 8.51751 43.1128C8.42658 43.0276 8.37061 42.9638 8.3802 42.9561ZM8.6105 43.2597C8.73821 43.49 8.69366 43.4011 8.6105 43.2597ZM9.07292 43.6353H9.08457C9.08457 43.6488 9.10582 43.6623 9.11359 43.676C9.10079 43.6609 9.08846 43.6474 9.07292 43.6353ZM90.0638 43.0739C89.1968 43.8985 87.8906 44.2816 86.5998 44.4731C72.1247 46.6212 57.4387 47.7087 42.805 47.2289C32.3318 46.8709 21.9689 45.7077 11.6002 44.2428C10.5842 44.0998 9.48325 43.9138 8.7846 43.1649C7.46861 41.7523 8.11495 38.9076 8.45766 37.2007C8.77111 35.6371 9.37107 33.553 11.2306 33.3304C14.1335 32.9898 17.5046 34.2148 20.3762 34.6503C23.8338 35.1778 27.3043 35.6005 30.7875 35.9178C45.6536 37.2724 60.7691 37.0613 75.5693 35.0798C78.2671 34.7172 80.955 34.2962 83.6333 33.8162C86.0192 33.3885 88.6647 32.5854 90.1063 35.0565C91.0954 36.7401 91.2267 38.9928 91.0739 40.895C91.0268 41.7239 90.6668 42.5032 90.0638 43.0739Z" fill="#0D0C22"/>
</g>
<defs>
<clipPath id="clip0_13_53">
<rect width="767.647" height="150" fill="white"/>
</clipPath>
</defs>
</svg>
