<svg width="619" height="151" viewBox="0 0 619 151" fill="none" xmlns="http://www.w3.org/2000/svg">
<g clip-path="url(#clip0_13_14)">
<path d="M96.0462 19.6431L27.1162 26.0922L38.2946 145.57L95.736 140.196C94.9675 133.037 92.6834 107.569 92.286 83.5016C91.8882 59.4342 96.0462 19.6431 96.0462 19.6431Z" fill="white" stroke="white" stroke-width="10"/>
<path d="M2.63483 12.1582L75.2408 5.36514L87.9241 140.927L15.3181 147.72L2.63483 12.1582Z" fill="white" stroke="black" stroke-width="10"/>
<path d="M17.4007 145.207L9.57581 61.5725C9.57581 61.5725 31.8326 62.6234 55.6911 78.5174C79.5498 94.4119 85.4114 138.844 85.4114 138.844L17.4007 145.207Z" fill="#FFD76B"/>
<path d="M56.3142 105.301C56.3298 105.469 56.2851 105.626 56.1798 105.772C56.0557 105.903 55.9099 105.976 55.7414 105.992L43.7107 107.117L46.6883 110.331C46.8005 110.44 46.8628 110.562 46.8757 110.697C46.8928 110.882 46.8078 111.06 46.6195 111.23L44.813 112.904C44.6861 113.001 44.5637 113.054 44.4457 113.065C44.2098 113.087 44.0234 113.003 43.8866 112.812L38.8439 107.42C38.7086 107.245 38.6307 107.049 38.6102 106.829L38.3147 103.67C38.2973 103.485 38.3421 103.328 38.449 103.199C38.5559 103.07 38.702 102.997 38.8874 102.979L55.3158 101.442C55.4843 101.427 55.6412 101.471 55.7871 101.577C55.9163 101.684 55.9892 101.829 56.0068 102.015L56.3142 105.301ZM55.2448 91.1467C55.4455 93.4738 54.9951 95.2922 53.8938 96.6016C52.776 97.9133 51.2275 98.7127 49.2485 98.9998C48.342 99.1184 47.5348 99.2111 46.8272 99.2771C46.1025 99.345 45.2669 99.4059 44.3202 99.4608C43.0501 99.5116 41.9013 99.3131 40.8736 98.8655C39.8274 98.4025 38.9682 97.6668 38.2961 96.6588C37.607 95.6527 37.1908 94.3825 37.0473 92.8493C36.8513 90.573 37.3024 88.7633 38.4005 87.4198C39.4986 86.0762 41.0201 85.2625 42.9652 84.9787C43.9056 84.8564 44.7381 84.7618 45.4626 84.6939C46.1705 84.6279 46.9805 84.5688 47.8938 84.5176C49.8928 84.4493 51.5635 84.9561 52.9057 86.037C54.2308 87.1202 55.0103 88.8233 55.2448 91.1467ZM51.5802 91.4896C51.5026 90.6639 51.1754 90.0745 50.5985 89.7205C50.0031 89.3513 49.2069 89.1962 48.2095 89.2558C47.7175 89.2678 46.9325 89.3241 45.8543 89.4251C44.7759 89.5258 44.0108 89.6144 43.559 89.6905C42.6018 89.8142 41.864 90.1041 41.3459 90.5605C40.8276 91.017 40.5996 91.6673 40.6615 92.5115C40.7556 93.3353 41.1004 93.9321 41.6958 94.3013C42.2897 94.6534 43.0684 94.8016 44.032 94.7453C44.4885 94.7199 45.2559 94.6567 46.3343 94.5556C47.4125 94.4545 48.1952 94.3728 48.6826 94.3105C50.7637 94.0308 51.7297 93.0907 51.5802 91.4896ZM55.9749 81.2411C55.9878 81.3759 55.9399 81.4991 55.8314 81.6113C55.7395 81.7221 55.6172 81.7761 55.464 81.7733L50.4369 81.4535C50.1978 81.4415 49.9869 81.3681 49.8046 81.2319C49.6219 81.0962 49.5175 80.8936 49.4926 80.6236L49.2157 77.6665C49.2032 77.5318 49.2434 77.4178 49.3366 77.3241C49.4114 77.2151 49.5162 77.1542 49.6514 77.1418C49.7691 77.1307 49.8632 77.1385 49.9338 77.1662L55.0145 78.603C55.2429 78.6838 55.4225 78.7858 55.5531 78.9095C55.7003 79.0318 55.7862 79.2191 55.8097 79.4721L55.9749 81.2411ZM53.0118 67.2796C53.2126 69.6062 52.7622 71.4247 51.6609 72.7345C50.5426 74.0458 48.9942 74.8451 47.0155 75.1322C46.1089 75.2508 45.3017 75.3436 44.594 75.4096C43.8695 75.4775 43.0338 75.5388 42.0871 75.5933C40.8171 75.6441 39.6682 75.4456 38.6405 74.9979C37.5944 74.535 36.7352 73.7993 36.063 72.7918C35.374 71.7851 34.9577 70.5155 34.8143 68.9822C34.6183 66.7059 35.0693 64.8958 36.1674 63.5522C37.2655 62.2087 38.7871 61.395 40.7322 61.1111C41.6726 60.9893 42.5051 60.8942 43.2296 60.8264C43.9373 60.7604 44.7476 60.7013 45.6606 60.6501C47.6598 60.5822 49.3306 61.0885 50.6723 62.1699C51.9974 63.2527 52.7774 64.9558 53.0118 67.2796ZM49.3468 67.6225C49.2697 66.7968 48.9425 66.207 48.3655 65.853C47.7702 65.4838 46.9735 65.3287 45.9765 65.3882C45.4847 65.4002 44.6996 65.4565 43.6212 65.5576C42.5429 65.6582 41.7778 65.7468 41.326 65.8235C40.3687 65.9467 39.631 66.237 39.1128 66.6935C38.5946 67.1495 38.3665 67.7998 38.4285 68.6439C38.5225 69.4678 38.8673 70.0645 39.4628 70.4338C40.0566 70.7864 40.8354 70.9341 41.799 70.8782C42.2555 70.8524 43.0229 70.7891 44.1012 70.6881C45.1796 70.5875 45.9624 70.5058 46.4492 70.443C48.5308 70.1633 49.4968 69.2231 49.3468 67.6225ZM51.4043 50.1011C51.6051 52.4278 51.1551 54.2462 50.0538 55.5561C48.9355 56.8673 47.3871 57.6667 45.4084 57.9538C44.5016 58.0724 43.6944 58.1651 42.9868 58.2311C42.2622 58.299 41.4266 58.3604 40.4799 58.4148C39.2099 58.4656 38.061 58.2671 37.0333 57.8195C35.9871 57.3565 35.128 56.6208 34.4558 55.6128C33.7667 54.6067 33.3504 53.337 33.207 51.8033C33.011 49.5275 33.4621 47.7173 34.5602 46.3739C35.6583 45.0303 37.1798 44.2166 39.1249 43.9326C40.0653 43.8107 40.8978 43.7158 41.6223 43.648C42.33 43.5817 43.1404 43.5229 44.0534 43.4715C46.0527 43.4034 47.7231 43.91 49.0652 44.9912C50.3903 46.074 51.1698 47.7773 51.4043 50.1011ZM47.7397 50.4436C47.6626 49.6184 47.3354 49.0285 46.7585 48.6745C46.1631 48.3053 45.3665 48.1502 44.3692 48.2098C43.8774 48.2218 43.0924 48.2781 42.014 48.3791C40.9356 48.4798 40.1706 48.5684 39.7188 48.6445C38.7615 48.7682 38.0238 49.0581 37.5055 49.5145C36.9874 49.971 36.7592 50.6213 36.8212 51.4655C36.9153 52.2893 37.2601 52.8861 37.8555 53.2553C38.4494 53.6075 39.2281 53.7556 40.1917 53.6998C40.6482 53.6739 41.4156 53.6107 42.494 53.5096C43.5724 53.4085 44.3551 53.3268 44.8422 53.2645C46.9237 52.9848 47.8892 52.0447 47.7397 50.4436ZM49.7972 32.9224C49.998 35.2492 49.5475 37.0675 48.4463 38.3773C47.3285 39.6887 45.7799 40.4879 43.8011 40.7751C42.8944 40.8939 42.0872 40.9864 41.3795 41.0526C40.655 41.1204 39.8194 41.1816 38.8727 41.2361C37.6026 41.287 36.4537 41.0885 35.426 40.6408C34.3799 40.1778 33.5207 39.4423 32.8485 38.4344C32.1595 37.428 31.7432 36.1582 31.5998 34.6249C31.4038 32.3487 31.8548 30.5387 32.9529 29.1953C34.051 27.8517 35.5726 27.038 37.5177 26.754C38.4581 26.6321 39.2906 26.5372 40.0151 26.4694C40.7228 26.4032 41.5332 26.3443 42.4462 26.2929C44.4454 26.2248 46.116 26.7314 47.4582 27.8127C48.7832 28.8955 49.5628 30.5987 49.7972 32.9224ZM46.1324 33.2652C46.0552 32.4396 45.7281 31.8498 45.1511 31.4959C44.5556 31.1267 43.7592 30.9717 42.762 31.031C42.2702 31.043 41.4851 31.0995 40.4068 31.2004C39.3284 31.3013 38.5633 31.3899 38.1115 31.4661C37.1543 31.5897 36.4165 31.8797 35.8983 32.3361C35.3801 32.7925 35.152 33.4427 35.214 34.2868C35.3081 35.1108 35.6528 35.7075 36.2483 36.0767C36.8422 36.429 37.6209 36.5771 38.5845 36.521C39.041 36.4953 39.8084 36.4319 40.8868 36.3311C41.9652 36.2302 42.7479 36.1484 43.2349 36.0859C45.3164 35.8061 46.2822 34.8659 46.1324 33.2652Z" fill="black"/>
<path d="M40.0264 134.353C40.035 134.444 40.0106 134.53 39.9531 134.61C39.8856 134.681 39.8059 134.721 39.714 134.73L30.7531 135.568C30.6521 135.578 30.5663 135.553 30.496 135.494C30.4248 135.427 30.3848 135.347 30.3762 135.255L30.0254 131.506C29.9128 130.302 30.1008 129.338 30.5895 128.616C31.0681 127.885 31.8083 127.473 32.81 127.379C33.4534 127.319 34.0144 127.419 34.4931 127.681C34.9719 127.942 35.3556 128.328 35.6445 128.838L38.8591 126.632C38.9117 126.6 38.9609 126.581 39.0069 126.577C39.0804 126.57 39.1524 126.596 39.2227 126.654C39.283 126.704 39.3166 126.766 39.3234 126.839L39.495 128.673C39.52 128.939 39.4135 129.14 39.1757 129.273L36.2898 131.128L36.4214 132.534L39.4818 132.248C39.5829 132.239 39.6691 132.267 39.7403 132.335C39.8106 132.393 39.8506 132.473 39.86 132.574L40.0264 134.353ZM34.3154 131.132C34.2759 130.709 34.1447 130.397 33.9219 130.196C33.6898 129.995 33.39 129.912 33.0224 129.946C32.6548 129.98 32.3756 130.118 32.1848 130.358C31.984 130.59 31.9038 130.922 31.9442 131.354L32.0926 132.939L34.4638 132.717L34.3154 131.132ZM41.7681 124.728C41.7768 124.82 41.7523 124.905 41.6949 124.985C41.6365 125.055 41.5568 125.095 41.4558 125.104L32.357 125.956C32.2559 125.965 32.1702 125.941 32.0999 125.882C32.0286 125.815 31.9887 125.735 31.9801 125.643L31.8344 124.085C31.8249 123.984 31.8493 123.899 31.9077 123.828C31.966 123.758 32.0457 123.718 32.1468 123.709L32.6431 123.662C31.9441 123.227 31.5512 122.545 31.4643 121.617C31.3801 120.716 31.5946 119.987 32.1079 119.429C32.6213 118.871 33.3859 118.521 34.4017 118.38C34.5204 118.359 34.69 118.339 34.9105 118.318C35.1311 118.298 35.3016 118.286 35.4219 118.285C36.4179 118.228 37.2295 118.43 37.8567 118.891C38.4747 119.353 38.8254 120.029 38.9088 120.92C38.993 121.821 38.7479 122.521 38.1734 123.02L41.2339 122.733C41.335 122.724 41.4207 122.748 41.4911 122.806C41.5614 122.865 41.6013 122.944 41.6108 123.045L41.7681 124.728ZM37.1311 121.838C37.0907 121.406 36.9332 121.11 36.6587 120.95C36.3833 120.781 36.0191 120.704 35.5662 120.719C35.3807 120.717 35.2374 120.722 35.1362 120.731C35.0352 120.74 34.8936 120.763 34.7115 120.799C34.2637 120.868 33.9202 121.011 33.6809 121.229C33.4408 121.436 33.3409 121.756 33.3813 122.188C33.4209 122.611 33.5834 122.911 33.8688 123.088C34.1442 123.257 34.49 123.336 34.9062 123.325L35.4175 123.291L35.9401 123.229C36.3152 123.175 36.6169 123.031 36.8453 122.796C37.0737 122.562 37.1689 122.242 37.1311 121.838Z" fill="black"/>
<path d="M86.1955 15.9292L98.1282 14.8128C99.5682 14.6781 100.778 15.8787 100.649 17.3191C99.7749 27.0691 96.9134 60.352 96.6665 80.7741C96.3748 104.907 100.503 141.604 100.503 141.604" stroke="black" stroke-width="10"/>
<path d="M200.183 44.4847C196.202 46.8731 194.079 52.9774 193.176 64.7084C192.858 68.5834 192.593 74.9001 192.593 78.669C192.593 86.7902 191.796 96.1858 190.841 98.9458C190.523 100.06 189.78 101.175 189.302 101.494C187.284 102.715 181.074 94.4868 176.084 84.0833C171.307 73.9978 168.175 65.5581 164.194 51.7036C163.026 47.6167 161.169 45.7587 157.824 45.2279C156.391 45.0686 154.162 45.0686 152.835 45.334L150.393 45.8117L150.552 54.8356C150.712 62.2138 150.446 65.9827 149.279 75.537C147.315 91.2491 147.156 105.05 148.907 108.819C150.075 111.42 150.924 112.057 153.738 112.587C155.489 112.959 160.532 112.11 160.956 111.42C161.063 111.261 160.797 109.668 160.373 107.917C159.683 105.315 159.47 100.697 159.364 82.4375C159.258 62.1076 159.311 60.3561 160.001 62.7976C170.458 98.3619 181.18 114.817 192.009 111.897C194.663 111.207 197.635 108.713 199.015 106.005C201.033 102.025 201.617 97.6719 202.147 83.4994C202.89 63.3284 203.74 58.1264 206.765 54.9948C207.509 54.2518 208.782 53.2964 209.632 52.9774C210.64 52.5528 211.171 51.9159 211.171 51.1728C211.171 49.0498 210.109 46.4487 208.676 44.9093C207.509 43.6885 206.818 43.4231 204.589 43.4231C202.837 43.4231 201.298 43.7947 200.183 44.4847Z" fill="black"/>
<path d="M404.704 49.3681C404.545 50.0581 404.386 51.5443 404.386 52.712C404.386 53.8801 404.014 56.8524 403.59 59.3475C403.165 61.8421 402.793 63.9652 402.793 64.0714C402.793 64.1775 400.989 64.1244 398.812 63.9121L394.831 63.5406V66.1418C394.831 67.5218 395.097 68.9549 395.468 69.3264C395.84 69.698 397.379 69.9634 398.971 69.9634H401.838L401.466 72.1931C401.307 73.4669 400.989 75.1654 400.83 75.9615C400.511 77.6604 393.663 86.2063 391.222 87.9578C389.258 89.3383 387.612 89.3914 386.869 88.064C386.179 86.684 386.179 82.0128 386.922 78.2974C387.506 75.4308 387.453 75.1654 386.179 73.2015C383.207 68.6895 377.049 66.7787 371.423 68.6364C365.531 70.6003 362.346 73.7323 358.789 81.1104C356.56 85.7817 352.844 90.8244 350.562 92.2044C349.447 92.8414 349.128 92.8944 348.385 92.2575C347.642 91.6206 347.536 90.3468 347.695 81.8535C347.855 72.7238 347.802 72.0869 346.74 70.7064C345.519 69.008 342.865 68.1588 340.476 68.5834L338.831 68.9018V75.9084C338.831 82.3312 338.724 83.1278 337.61 84.9324C336.018 87.4801 332.461 90.6652 331.134 90.6652C329.276 90.6652 329.011 89.0198 329.117 79.2527C329.276 68.318 329.329 68.3711 324.18 68.3711C319.509 68.3711 319.722 68.1057 319.881 74.9531L320.093 81.0043L316.962 83.0747C313.883 85.1447 311.335 86.4186 310.433 86.4186C310.114 86.4186 309.902 85.2509 309.902 83.8178C309.902 80.5797 309.211 78.6689 307.354 76.7046C306.239 75.5369 305.549 75.2715 303.426 75.2715C300.453 75.2715 298.596 76.0677 296.472 78.3504C293.234 81.7474 294.455 87.0555 299.286 90.1875L301.886 91.886L300.984 93.4252C299.816 95.4426 297.162 97.8841 295.782 98.3088C293.181 99.1049 290.315 94.4337 289.253 87.6394C288.775 84.5609 288.775 84.5609 291.111 81.3227C294.508 76.5454 298.596 67.628 300.082 61.736C301.568 55.844 301.621 55.5786 300.825 52.8181C300.188 50.4827 297.799 48.7312 295.251 48.7312C292.916 48.7312 288.404 51.1727 286.387 53.5617C280.973 59.8783 278.159 71.5031 278.743 85.3571C279.008 92.8414 279.805 96.0795 282.087 99.7418C285.75 105.634 293.075 107.757 299.179 104.678C302.364 103.086 305.124 100.007 307.46 95.3364C308.999 92.3637 309.264 92.0452 311.494 91.5144C312.821 91.1429 315.05 90.2406 316.484 89.4444C317.917 88.6478 319.138 88.0109 319.191 88.0109C319.244 88.0109 319.509 89.2321 319.668 90.7714C320.412 96.0795 322.429 98.2026 326.834 98.2026C330.126 98.1495 332.779 96.8226 335.964 93.6375C337.344 92.3106 338.565 91.196 338.724 91.196C338.831 91.196 339.096 91.886 339.255 92.7352C339.468 93.6375 340.264 95.0711 341.113 96.0264C342.387 97.4595 343.077 97.778 345.572 97.9903C349.128 98.2557 351.305 97.3534 355.02 94.0091L357.674 91.6737L358.524 93.7968C361.656 101.706 372.325 101.388 378.376 93.2129L380.234 90.6652L381.136 92.5229C382.304 94.6991 383.525 95.4426 386.073 95.4426C389.576 95.4426 394.088 92.3637 398.069 87.3209C400.352 84.4547 400.299 84.4017 400.883 89.7629C401.307 93.2129 403.059 97.088 405.076 99.0518C410.172 103.935 419.62 103.511 425.778 98.0964C428.325 95.8141 428.856 94.6991 428.219 92.9475C427.529 90.9837 425.831 90.9306 423.707 92.7352C417.762 97.9903 411.711 97.6718 410.172 92.0983C409.482 89.5506 409.853 79.8366 410.915 73.9446L411.552 70.2287L414.471 70.1226C421.637 69.8041 422.699 69.2734 423.76 65.8234C424.079 64.6552 424.079 64.6552 418.452 64.6552H412.773L413.091 63.1691C413.781 59.9844 414.047 52.6589 413.463 51.2258C412.773 49.4743 410.118 48.2004 407.093 48.2004C405.394 48.2004 404.97 48.4127 404.704 49.3681ZM295.517 58.3386C295.57 59.0291 295.41 60.9398 295.039 62.5321C294.243 66.1949 289.094 77.0235 288.775 75.59C288.457 74.1038 289.678 66.5664 290.845 62.7975C292.438 57.5424 295.039 55.1009 295.517 58.3386ZM378.588 75.6431C378.429 79.412 373.28 89.2852 370.573 91.0367C369.405 91.8329 369.193 91.8329 368.397 90.9837C365.796 88.3824 370.202 76.4923 374.766 73.6792C376.253 72.7769 376.625 72.7238 377.58 73.3608C378.27 73.8384 378.642 74.6346 378.588 75.6431ZM303.904 82.862C304.222 85.5163 303.585 86.2594 301.992 85.2509C300.984 84.6671 299.816 82.6497 299.816 81.6412C299.816 81.3227 300.294 80.6327 300.931 79.9958C301.939 78.9874 302.152 78.9874 302.842 79.6774C303.266 80.102 303.744 81.5351 303.904 82.862Z" fill="black"/>
<path d="M237.446 52.9248C231.077 56.7994 226.299 71.5031 225.662 89.3383C225.238 101.069 226.671 106.749 230.492 108.607C232.457 109.562 235.057 108.66 237.128 106.324C239.039 104.095 242.064 97.9373 243.338 93.5845L244.241 90.3999L244.984 93.5314C246.204 98.9457 248.805 101.812 252.468 101.812C254.113 101.812 256.025 100.326 256.555 98.5742C256.874 97.6719 256.555 97.1411 255.282 96.1326C253.052 94.3811 252.415 91.6207 252.627 84.8794L252.84 79.3059L251.035 78.0851C248.487 76.3866 246.151 76.4928 243.869 78.4567C242.011 80.102 238.083 87.1617 236.384 91.9922C235.854 93.4253 235.217 94.8588 235.004 95.1242C234.367 95.8673 233.837 89.9753 234.102 84.8263C234.314 80.3143 234.42 80.049 235.907 78.9343C238.986 76.599 242.86 72.14 244.559 68.9019C247.691 63.063 247.372 56.1094 243.922 53.1902C242.064 51.6505 239.676 51.5443 237.446 52.9248ZM240.153 60.1437C240.79 62.6914 238.03 70.2823 235.8 72.14C234.951 72.83 234.951 72.6708 235.27 69.7511C235.96 64.2311 237.977 58.8168 239.304 58.8168C239.569 58.8168 239.941 59.4006 240.153 60.1437Z" fill="black"/>
<path d="M452.159 57.8079C449.823 58.7638 448.974 59.9314 448.974 62.1076C448.974 65.9827 453.751 68.9019 457.254 67.2034C460.652 65.6111 462.402 60.0907 460.227 58.1264C459.112 57.1179 454.388 56.9587 452.159 57.8079Z" fill="black"/>
<path d="M517.449 58.1798C511.237 61.2583 517.182 70.0169 523.445 67.0441C526.523 65.6111 528.222 60.0906 526.154 58.0737C524.986 56.9055 519.835 56.9586 517.449 58.1798Z" fill="black"/>
<path d="M212.02 61.2583C210.587 62.0545 210.534 62.2668 210.746 64.9742C211.012 68.1057 212.657 70.4946 214.515 70.4946C216.214 70.4946 218.974 68.4773 219.876 66.5665C220.832 64.4965 220.248 61.8422 218.602 60.9399C217.116 60.1437 213.772 60.356 212.02 61.2583Z" fill="black"/>
<path d="M583.694 66.2482L581.728 67.3097L582.046 72.7771L582.365 78.2445L579.18 81.9599C572.917 89.2323 570.531 90.4531 568.989 87.268C568.352 85.9411 568.352 84.8796 568.938 80.5268C569.257 77.7137 569.414 74.9002 569.202 74.2633C568.671 72.5117 564.374 69.1143 561.771 68.3713C558.854 67.5751 554.922 67.9466 551.843 69.3266C549.351 70.4413 543.088 75.431 534.858 82.8626C530.455 86.8434 529.657 87.3742 529.657 86.3657C529.657 85.7288 529.182 83.2873 528.545 81.0576C526.472 73.2548 523.02 69.8043 518.617 71.0256C517.5 71.291 516.175 71.8748 515.589 72.2994C514.583 73.0425 514.583 73.0956 515.751 75.2186L516.969 77.3953L513.522 81.5883C508.745 87.3211 506.515 89.1793 504.817 88.967C502.694 88.7546 502.214 86.1003 503.118 79.7306L503.806 74.6879L502.214 72.724C501.365 71.6625 499.348 70.0697 497.755 69.2736C495.258 67.9466 494.465 67.7874 491.543 67.9997C485.917 68.4243 481.726 71.1848 468.826 83.0219L463.943 87.4273L463.306 84.1365C461.82 76.4394 459.378 71.981 456.14 71.0786C454.123 70.5479 451.469 71.0256 449.77 72.2994C448.815 72.9894 448.815 73.1486 450.46 76.7583C452.371 80.8453 454.548 88.8608 455.078 93.6908L455.45 96.8228L451.999 101.866C445.736 111.154 444.78 116.463 448.762 120.125C449.929 121.187 450.726 121.452 453.008 121.452C455.45 121.452 456.14 121.187 457.732 119.754C461.501 116.516 463.625 109.721 464.206 99.5297L464.525 93.2662L469.094 89.0731L473.658 84.8265L473.977 88.7016C474.295 93.0539 474.826 94.5405 476.788 96.6636C481.777 102.025 490.537 99.7951 495.789 91.8331L496.588 90.6123L497.275 92.2577C497.649 93.16 498.448 94.2216 499.085 94.6466C500.465 95.6551 503.7 95.6551 506.091 94.6466C508.532 93.6377 513.84 88.5423 516.388 84.7203L518.405 81.6414L519.254 84.4019C519.729 85.9411 520.366 89.4446 520.74 92.0985C521.377 96.929 521.377 97.0351 520.103 98.7336C514.158 106.696 511.611 112.8 512.672 116.463C513.679 120.125 515.377 121.452 519.092 121.452C525.462 121.452 529.288 113.968 530.082 99.9543L530.455 93.5846L535.389 88.8077L540.328 84.0303L539.954 86.2596C538.468 95.549 546.06 102.237 553.966 98.6274C557.418 97.0351 559.117 95.7082 560.871 93.0008L562.514 90.6123L563.312 92.2046C566.178 97.7251 573.185 96.0266 579.711 88.1703L581.677 85.7819V88.5954C581.677 94.912 583.588 97.5659 588.046 97.5659C589.426 97.5659 590.806 97.2474 591.074 96.8759C591.392 96.5574 592.242 94.0623 593.035 91.4616C595.002 85.0388 598.662 77.5545 600.997 75.3248C602.059 74.3163 603.069 73.6794 603.282 73.8386C603.494 74.051 603.545 76.3333 603.388 78.8814C603.014 87.0557 603.226 94.5936 603.918 96.6636C605.935 102.662 612.517 104.679 616.814 100.645L618.462 99.1051L616.339 97.0882C615.115 95.8674 614.054 94.3277 613.842 93.3193C613.685 92.3639 613.523 87.7457 613.472 83.0219C613.417 73.3079 612.992 71.344 610.288 69.539C608.802 68.4774 607.952 68.3182 605.455 68.4774C600.997 68.7959 599.086 70.5479 592.399 80.3676C591.817 81.2168 591.762 80.4737 591.923 75.8025C592.08 72.4586 591.923 69.4859 591.549 68.3713C590.543 65.2397 587.303 64.39 583.694 66.2482ZM494.303 73.4671C495.526 74.6348 495.365 76.0679 493.403 80.8453C489.369 90.7185 484.006 94.9651 484.006 88.2234C484.006 83.4996 487.777 75.8556 491.174 73.6794C493.085 72.4056 493.242 72.4056 494.303 73.4671ZM560.446 73.6794C561.402 74.6348 561.402 74.8471 560.658 77.5014C559.385 81.7476 555.771 88.3296 553.754 90.1346C551.58 92.0454 551.1 92.0985 550.306 90.5593C548.714 87.5865 552.111 78.1914 556.195 74.5286C558.642 72.2994 559.011 72.2463 560.446 73.6794ZM455.238 108.872C454.972 113.119 453.804 116.675 452.69 116.675C451.734 116.675 450.991 114.446 451.362 112.481C451.681 110.624 454.654 104.466 455.238 104.466C455.397 104.466 455.344 106.43 455.238 108.872ZM521.215 109.244C520.897 111.632 520.366 114.233 519.997 114.976C518.298 118.426 516.545 115.773 517.662 111.42C518.349 108.766 521.003 104.095 521.534 104.626C521.695 104.785 521.534 106.855 521.215 109.244Z" fill="black"/>
<path d="M210.428 84.4017C209.95 100.22 210.587 102.874 215.152 102.874C219.399 102.874 219.346 103.033 219.558 88.7014L219.77 76.0677L218.337 74.5815C217.063 73.3607 216.426 73.1484 213.825 73.1484H210.799L210.428 84.4017Z" fill="black"/>
</g>
<defs>
<clipPath id="clip0_13_14">
<rect width="618.462" height="150" fill="white" transform="translate(0 0.5)"/>
</clipPath>
</defs>
</svg>
